<svg xmlns="http://www.w3.org/2000/svg" xmlns:xlink="http://www.w3.org/1999/xlink" viewBox="0 0 216.98 680.25"><defs><style>.cls-1{fill:none;}.cls-2{clip-path:url(#clip-path);}.cls-3{fill:url(#linear-gradient);}.cls-4{opacity:0.18;}.cls-5{fill:url(#linear-gradient-2);}.cls-6{fill:url(#linear-gradient-3);}.cls-7{fill:url(#linear-gradient-4);}.cls-8{fill:url(#linear-gradient-5);}.cls-9{fill:url(#linear-gradient-6);}.cls-10{fill:url(#linear-gradient-7);}.cls-11{opacity:0.16;}.cls-12{fill:#fde7a1;}.cls-13{fill:#ffecb2;}</style><clipPath id="clip-path" transform="translate(0 -30.75)"><rect class="cls-1" x="26.32" width="204.55" height="729.41"/></clipPath><linearGradient id="linear-gradient" y1="251.89" x2="216.2" y2="251.89" gradientUnits="userSpaceOnUse"><stop offset="0" stop-color="#211754"/><stop offset="1" stop-color="#7e298b"/></linearGradient><linearGradient id="linear-gradient-2" x1="50.13" y1="107.74" x2="78.54" y2="107.74" xlink:href="#linear-gradient"/><linearGradient id="linear-gradient-3" x1="56.18" y1="164.53" x2="80.74" y2="164.53" xlink:href="#linear-gradient"/><linearGradient id="linear-gradient-4" x1="11.61" y1="224.4" x2="35.19" y2="224.4" xlink:href="#linear-gradient"/><linearGradient id="linear-gradient-5" x1="22.91" y1="267.56" x2="48.19" y2="267.56" xlink:href="#linear-gradient"/><linearGradient id="linear-gradient-6" x1="30.54" y1="290.85" x2="53.92" y2="290.85" xlink:href="#linear-gradient"/><linearGradient id="linear-gradient-7" x1="21.79" y1="561.27" x2="128.22" y2="561.27" xlink:href="#linear-gradient"/></defs><title>Asset 3</title><g id="Layer_2" data-name="Layer 2"><g id="Layer_1-2" data-name="Layer 1"><g class="cls-2"><path class="cls-3" d="M68.51,473s5.54-73.56-29.3-140.81C18.37,292,0,166.16,0,166.16s43.41,36.23,62.41,152.43a628.14,628.14,0,0,1,7.17,67s-2.12-134.78-8.7-174.28C39.7,84.23,53,30.75,53,30.75s23.6,20.6,26.54,108S67.86,372.34,73.75,419.45c12.77-86.94,15-303.46,62.11-362.34,49.46,75-3.74,159.15-23.55,198.66C95.62,289.06,73.29,464,73.29,464s19-111.14,57.27-170.64c30.34-47.16,82.54-116.64,82.54-116.64s11.18,74.51-8.95,103.19S126,319,117.5,331.78s-36.83,97-35.24,115.7C83.57,462.82,85.1,473,85.1,473Z" transform="translate(0 -30.75)"/><g class="cls-4"><path class="cls-5" d="M50.27,108.58l28.27,1.79c-.12-1.18-.24-2.34-.37-3.48l-28-1.79C50.17,106.25,50.22,107.41,50.27,108.58Z" transform="translate(0 -30.75)"/><path class="cls-6" d="M80.68,150.64l-24.5,23.53c.18,1.41.36,2.82.56,4.25l24-23C80.72,153.78,80.7,152.21,80.68,150.64Z" transform="translate(0 -30.75)"/><path class="cls-7" d="M12.31,232.55l22.88-13.13c-.48-1.08-1-2.13-1.44-3.17L11.61,229C11.84,230.15,12.07,231.35,12.31,232.55Z" transform="translate(0 -30.75)"/><path class="cls-8" d="M46.92,250.11l-24,30.66Q23.45,282.9,24,285l24.2-30.91C47.77,252.75,47.35,251.42,46.92,250.11Z" transform="translate(0 -30.75)"/><path class="cls-9" d="M53.92,274q-.63-2.4-1.27-4.75L30.54,308c.48,1.51,1,3,1.45,4.42Z" transform="translate(0 -30.75)"/></g><polygon class="cls-10" points="29.43 442.29 122.5 442.29 128.22 680.25 21.79 680.25 29.43 442.29"/><g class="cls-11"><path class="cls-12" d="M92.92,226.27a114.56,114.56,0,0,1,45-20.38c.56-1.27,1.11-2.55,1.65-3.85a118.89,118.89,0,0,0-46.14,19.54C93.27,223.14,93.09,224.7,92.92,226.27Z" transform="translate(0 -30.75)"/><path class="cls-12" d="M165.39,243.4l-2.88,4.09a190.17,190.17,0,0,1,53.34-3.2c.13-1.14.24-2.28.35-3.43A195.19,195.19,0,0,0,165.39,243.4Z" transform="translate(0 -30.75)"/><path class="cls-12" d="M186.27,221.45c8.38-2.73,19.39-5.17,30.71-4.54,0-1.19,0-2.36-.07-3.52-12.24-.67-24.22,2.07-34,5.47l-3.7,5.12C181.44,223.12,183.78,222.26,186.27,221.45Z" transform="translate(0 -30.75)"/><path class="cls-12" d="M129.28,224.43c-14.76,9.27-30.23,22-39.3,29.9l-.48,5c7.47-6.55,22.13-19,36.69-28.77Q127.72,227.58,129.28,224.43Z" transform="translate(0 -30.75)"/><path class="cls-12" d="M109.82,122.51c10.64-3.9,27.73-8.88,46.71-9.44-.11-1.15-.24-2.3-.38-3.45-18.05.58-34.4,5-45.32,8.87C110.49,119.82,110.15,121.16,109.82,122.51Z" transform="translate(0 -30.75)"/><path class="cls-12" d="M140.86,279c-.72,1.06-1.42,2.12-2.12,3.17,13.43,2.28,34.85,6.43,51.66,12q1.69-1.23,3.3-2.52C176.85,285.72,155,281.4,140.86,279Z" transform="translate(0 -30.75)"/></g><rect class="cls-13" x="21.79" y="440.56" width="107.49" height="3.46"/></g></g></g></svg>