<svg xmlns="http://www.w3.org/2000/svg" xmlns:xlink="http://www.w3.org/1999/xlink" viewBox="0 0 535.11 1228.66"><defs><style>.cls-1{fill:none;}.cls-2{clip-path:url(#clip-path);}.cls-27,.cls-3{opacity:0;}.cls-3{fill:url(#linear-gradient);}.cls-4{opacity:0.05;fill:url(#linear-gradient-2);}.cls-5{opacity:0.1;fill:url(#linear-gradient-3);}.cls-6{opacity:0.14;fill:url(#linear-gradient-4);}.cls-7{opacity:0.19;fill:url(#linear-gradient-5);}.cls-8{opacity:0.24;fill:url(#linear-gradient-6);}.cls-9{opacity:0.29;fill:url(#linear-gradient-7);}.cls-10{opacity:0.33;fill:url(#linear-gradient-8);}.cls-11{opacity:0.38;fill:url(#linear-gradient-9);}.cls-12{opacity:0.43;fill:url(#linear-gradient-10);}.cls-13{opacity:0.48;fill:url(#linear-gradient-11);}.cls-14{opacity:0.52;fill:url(#linear-gradient-12);}.cls-15{opacity:0.57;fill:url(#linear-gradient-13);}.cls-16{opacity:0.62;fill:url(#linear-gradient-14);}.cls-17{opacity:0.67;fill:url(#linear-gradient-15);}.cls-18{opacity:0.71;fill:url(#linear-gradient-16);}.cls-19{opacity:0.76;fill:url(#linear-gradient-17);}.cls-20{opacity:0.81;fill:url(#linear-gradient-18);}.cls-21{opacity:0.86;fill:url(#linear-gradient-19);}.cls-22{opacity:0.9;fill:url(#linear-gradient-20);}.cls-23{opacity:0.95;fill:url(#linear-gradient-21);}.cls-24{fill:url(#linear-gradient-22);}.cls-25,.cls-27,.cls-28,.cls-29,.cls-30,.cls-31,.cls-32,.cls-33,.cls-34,.cls-35,.cls-36,.cls-37,.cls-38,.cls-39,.cls-40,.cls-41,.cls-42{fill:#fde7a1;}.cls-26{opacity:0.17;}.cls-28{opacity:0.06;}.cls-29{opacity:0.13;}.cls-30{opacity:0.19;}.cls-31{opacity:0.25;}.cls-32{opacity:0.31;}.cls-33{opacity:0.38;}.cls-34{opacity:0.44;}.cls-35{opacity:0.5;}.cls-36{opacity:0.56;}.cls-37{opacity:0.63;}.cls-38{opacity:0.69;}.cls-39{opacity:0.75;}.cls-40{opacity:0.81;}.cls-41{opacity:0.88;}.cls-42{opacity:0.94;}</style><clipPath id="clip-path" transform="translate(-63.74 -23.54)"><rect class="cls-1" width="429.91" height="587.27"/></clipPath><linearGradient id="linear-gradient" x1="63.74" y1="510.56" x2="598.85" y2="510.56" gradientUnits="userSpaceOnUse"><stop offset="0" stop-color="#211754"/><stop offset="1" stop-color="#7e298b"/></linearGradient><linearGradient id="linear-gradient-2" x1="66.14" y1="512.06" x2="596.73" y2="512.06" xlink:href="#linear-gradient"/><linearGradient id="linear-gradient-3" x1="68.53" y1="513.56" x2="594.61" y2="513.56" xlink:href="#linear-gradient"/><linearGradient id="linear-gradient-4" x1="70.93" y1="515.06" x2="592.5" y2="515.06" xlink:href="#linear-gradient"/><linearGradient id="linear-gradient-5" x1="73.32" y1="516.55" x2="590.4" y2="516.55" xlink:href="#linear-gradient"/><linearGradient id="linear-gradient-6" x1="75.71" y1="518.05" x2="588.31" y2="518.05" xlink:href="#linear-gradient"/><linearGradient id="linear-gradient-7" x1="78.09" y1="519.55" x2="586.22" y2="519.55" xlink:href="#linear-gradient"/><linearGradient id="linear-gradient-8" x1="80.48" y1="521.04" x2="584.14" y2="521.04" xlink:href="#linear-gradient"/><linearGradient id="linear-gradient-9" x1="82.85" y1="522.54" x2="582.07" y2="522.54" xlink:href="#linear-gradient"/><linearGradient id="linear-gradient-10" x1="85.22" y1="524.03" x2="580.01" y2="524.03" xlink:href="#linear-gradient"/><linearGradient id="linear-gradient-11" x1="87.59" y1="525.53" x2="577.95" y2="525.53" xlink:href="#linear-gradient"/><linearGradient id="linear-gradient-12" x1="89.95" y1="527.02" x2="575.91" y2="527.02" xlink:href="#linear-gradient"/><linearGradient id="linear-gradient-13" x1="92.3" y1="528.52" x2="573.88" y2="528.52" xlink:href="#linear-gradient"/><linearGradient id="linear-gradient-14" x1="94.64" y1="530.01" x2="571.86" y2="530.01" xlink:href="#linear-gradient"/><linearGradient id="linear-gradient-15" x1="96.98" y1="531.5" x2="569.84" y2="531.5" xlink:href="#linear-gradient"/><linearGradient id="linear-gradient-16" x1="99.3" y1="532.99" x2="567.85" y2="532.99" xlink:href="#linear-gradient"/><linearGradient id="linear-gradient-17" x1="101.62" y1="534.48" x2="565.86" y2="534.48" xlink:href="#linear-gradient"/><linearGradient id="linear-gradient-18" x1="103.92" y1="535.97" x2="563.89" y2="535.97" xlink:href="#linear-gradient"/><linearGradient id="linear-gradient-19" x1="106.2" y1="537.46" x2="561.93" y2="537.46" xlink:href="#linear-gradient"/><linearGradient id="linear-gradient-20" x1="108.48" y1="538.95" x2="559.99" y2="538.95" xlink:href="#linear-gradient"/><linearGradient id="linear-gradient-21" x1="110.73" y1="540.43" x2="558.06" y2="540.43" xlink:href="#linear-gradient"/><linearGradient id="linear-gradient-22" x1="112.98" y1="541.92" x2="556.16" y2="541.92" xlink:href="#linear-gradient"/></defs><title>Asset 1</title><g id="Layer_2" data-name="Layer 2"><g id="Layer_1-2" data-name="Layer 1"><g class="cls-2"><path class="cls-3" d="M388.32,997.59s-4.76-149.18,77.25-284.16c48.48-79.8,151.6-360.75,130.46-408.74s-125.7-47.53-186.15,174.75c-19.67,72.3-58.87,436-58.87,436s61.2-430.81,74.76-512.2c43.65-261.86,53.85-371,9.37-379.23s-100.6,89.53-106.67,269.51S307,480.29,343.83,554.34C337,377.39,380.74,235.87,208.68,175c-55.15-19.51,21.94,258.45,46.2,331.24S290,621,290,621s5.15,17.26-73.74-105.34C153.73,418.45,84,349.41,70,395.06s-5.21,153.93,36.28,213S231.43,706.92,249,733.33s54,173.23,50.71,211.86c-2.68,31.59-22.62,52.4-22.62,52.4Z" transform="translate(-63.74 -23.54)"/><path class="cls-4" d="M386.75,997.59s-5-149.34,77-284.32c48.48-79.8,150.53-360.55,130.4-406.25S468.42,266.26,409,489.36c-19.31,72.38-58,426.09-58,426.09s59.57-428.19,73.14-509.58C467.8,144,476.2,34.78,433.84,27s-97.92,87.3-104,267.27-20.51,200.79,14,275.94c-7.77-177.06,33.18-324.82-133.72-390C158.06,166.31,232.75,434,256.51,507.3,280.21,580.24,292.64,638,292.64,638s4,5.54-74.86-117.07c-62.53-97.17-132.23-166-145.61-122.56S66.37,547.91,107.86,607s124.81,98.64,142.41,125,54,174.5,50.77,213.12a96,96,0,0,1-21.82,52.42Z" transform="translate(-63.74 -23.54)"/><path class="cls-5" d="M385.18,997.59s-5.29-149.51,76.71-284.49c48.48-79.8,149.47-360.33,130.34-403.75s-125.71-34-184.14,189.93C389.15,571.74,351,915.45,351,915.45S409,489.89,422.53,408.5c43.65-261.87,50.26-371.14,10-378.56S337.29,115,331.23,295,311.7,509.8,343.9,586c-8.7-177.16,29.44-331.18-132.31-400.58-49-8.35,23.3,249,46.55,322.89,23.12,73.08,37.14,146.71,37.14,146.71s2.91-6.19-76-128.8C156.77,429.09,87.11,360.41,74.4,401.71S68,546.83,109.5,605.93s124.41,98.44,142,124.85,54.1,175.76,50.82,214.38c-2.68,31.6-21,52.43-21,52.43Z" transform="translate(-63.74 -23.54)"/><path class="cls-6" d="M383.61,997.59s-5.56-149.67,76.44-284.65c48.49-79.8,148.4-360.13,130.28-401.27S464.61,284.47,407.2,509.2C388.62,581.74,351,915.45,351,915.45s56.33-422.94,69.9-504.33c43.65-261.86,48.46-371.19,10.34-378.21s-92.58,82.81-98.65,262.78-18.53,228.86,11.33,306.2c-9.63-177.27,25.72-337.54-130.88-411.21-45.92-2.76,24,244.34,46.71,318.71,22.56,73.22,38.16,162.72,38.16,162.72s1.79-17.92-77.11-140.52C158.29,434.42,88.67,365.91,76.63,405s-7,140.72,34.5,199.82,124,98.24,141.62,124.65,54.16,177,50.88,215.65c-2.68,31.6-20.22,52.44-20.22,52.44Z" transform="translate(-63.74 -23.54)"/><path class="cls-7" d="M382,997.59s-5.82-149.83,76.19-284.82C506.7,633,605.55,352.85,588.43,314S462.71,293.58,406.31,519.13C388.09,591.74,351,915.45,351,915.45s54.71-420.32,68.28-501.71C462.94,151.88,466,42.5,430,35.87S340,116.44,334,296.41,316.44,539.3,344,617.74C333.41,440.37,366,273.85,214.51,195.9c-42.84,2.83,24.64,239.64,46.88,314.54,22,73.36,39.18,178.72,39.18,178.72s.65-29.64-78.24-152.25C159.81,439.74,90.23,371.4,78.85,408.36s-7.58,136.32,33.92,195.41S236.39,701.82,254,728.22s54.22,178.3,50.94,216.92c-2.68,31.6-19.42,52.45-19.42,52.45Z" transform="translate(-63.74 -23.54)"/><path class="cls-8" d="M380.46,997.59s-6.09-150,75.92-285c48.48-79.8,146.26-359.72,130.15-396.28S460.8,302.68,405.42,529.05C387.56,601.74,351,915.45,351,915.45s53.09-417.69,66.66-499.09c43.65-261.86,44.87-371.28,11-377.53s-87.23,78.33-93.3,258.31S318.81,554.06,344,633.59c-11.48-177.47,18.25-350.25-128-432.46-39.76,8.41,25.32,234.93,47,310.36,21.41,73.5,40.19,194.72,40.19,194.72s-.47-41.37-79.36-164C161.32,445.06,91.78,376.9,81.08,411.68s-8.18,131.92,33.32,191S237.63,700.54,255.23,727s54.28,179.55,51,218.18c-2.68,31.59-18.63,52.46-18.63,52.46Z" transform="translate(-63.74 -23.54)"/><path class="cls-9" d="M378.89,997.59s-6.36-150.16,75.65-285.14c48.48-79.8,145.2-359.51,130.1-393.79S458.9,311.79,404.53,539C387,611.74,351,915.45,351,915.45s51.47-415.07,65-496.46C459.7,157.12,459.13,47.65,427.36,41.8s-84.57,76.08-90.63,256.06S321.17,568.81,344,649.44c-12.41-177.58,14.52-356.6-126.6-443.09-36.69,14,26,230.23,47.21,306.19,20.85,73.64,41.21,210.72,41.21,210.72s-1.59-53.1-80.48-175.7C162.84,450.38,93.34,382.4,83.31,415S74.54,542.52,116,601.62s122.84,97.65,140.44,124,54.34,180.82,51.06,219.45c-2.69,31.59-17.83,52.47-17.83,52.47Z" transform="translate(-63.74 -23.54)"/><path class="cls-10" d="M377.32,997.59s-6.63-150.33,75.38-285.31c48.48-79.8,144.13-359.3,130-391.3S457,320.89,403.64,548.89C386.5,621.74,351,915.45,351,915.45S400.86,503,414.43,421.61c43.65-261.86,41.28-371.39,11.63-376.85s-81.89,73.85-88,253.82-14.56,285,6,366.7c-13.34-177.67,10.78-362.95-125.19-453.7-33.6,19.58,26.68,225.52,47.39,302,20.28,73.78,42.22,226.73,42.22,226.73s-2.71-64.83-81.6-187.43c-62.53-97.17-132-165-141.35-134.55s-9.37,123.11,32.13,182.21S240.11,698,257.71,724.4s54.39,182.08,51.11,220.71c-2.68,31.59-17,52.48-17,52.48Z" transform="translate(-63.74 -23.54)"/><path class="cls-11" d="M375.75,997.59s-6.89-150.49,75.11-285.47c48.48-79.8,143.07-359.1,130-388.81S455.09,330,402.75,558.81C386,631.74,351,915.45,351,915.45s48.23-409.83,61.79-491.22c43.66-261.86,39.5-371.44,12-376.51s-79.22,71.61-85.28,251.58-13.57,299,4.62,381.83c-14.26-177.78,7.06-369.31-123.76-464.33C189.81,242,247.69,437.62,267.9,514.63c19.7,73.92,43.24,242.73,43.24,242.73s-3.84-76.55-82.73-199.16C165.88,461,96.46,393.4,87.76,421.66s-10,118.7,31.54,177.8S241.35,696.71,259,723.12s54.45,183.35,51.17,222c-2.68,31.6-16.23,52.5-16.23,52.5Z" transform="translate(-63.74 -23.54)"/><path class="cls-12" d="M374.18,997.59S367,846.94,449,712c48.49-79.79,142-358.89,129.92-386.31S453.18,339.1,401.86,568.74C385.44,641.74,351,915.45,351,915.45s46.61-407.2,60.17-488.59C454.84,165,448.88,55.37,423.47,50.69S346.92,120.05,340.85,300s-12.58,313.05,3.29,397C328.94,519.1,347.46,321.32,221.8,222c-27.45,30.74,27.87,216.15,47.73,293.65,19,74.09,44.25,258.73,44.25,258.73s-5-88.28-83.85-210.89C167.4,466.35,98,398.9,90,425s-10.55,114.3,30.94,173.4,121.66,97.06,139.26,123.46,54.51,184.62,51.23,223.24c-2.68,31.6-15.43,52.51-15.43,52.51Z" transform="translate(-63.74 -23.54)"/><path class="cls-13" d="M372.61,997.59s-7.43-150.82,74.58-285.8C495.67,632,588.12,353.1,577,328S451.28,348.21,401,578.66c-16.06,73.08-50,336.79-50,336.79s45-404.58,58.55-486c43.65-261.86,35.91-371.54,12.61-375.83s-73.88,67.12-79.94,247.1-11.59,327.08,1.94,412.08c-16.12-178-.41-382-120.91-485.58-24.37,36.33,28.54,211.45,47.89,289.47,18.41,74.24,45.27,274.74,45.27,274.74s-6.08-100-85-222.61C168.92,471.67,99.58,404.4,92.22,428.31s-11.15,109.9,30.35,169,121.26,96.86,138.86,123.27S316,906.45,312.72,945.07c-2.68,31.6-14.63,52.52-14.63,52.52Z" transform="translate(-63.74 -23.54)"/><path class="cls-14" d="M371,997.59s-7.7-151,74.31-286c48.48-79.8,139.86-358.48,129.79-381.34s-125.77,27-175.06,258.29C384.38,661.74,351,915.45,351,915.45s43.36-402,56.93-483.35c43.65-261.86,34.11-371.59,12.93-375.49s-71.2,64.88-77.27,244.86-10.59,341.11.6,427.21c-17-178.09-4.14-388.37-119.48-496.21-21.3,41.92,29.22,206.75,48.06,285.3,17.84,74.38,46.28,290.74,46.28,290.74S311.86,696.77,233,574.17C170.44,477,101.13,409.9,94.45,431.63S82.71,537.13,124.2,596.22s120.87,96.67,138.47,123.07S317.3,906.44,314,945.06c-2.69,31.6-13.84,52.53-13.84,52.53Z" transform="translate(-63.74 -23.54)"/><path class="cls-15" d="M369.47,997.59s-8-151.14,74-286.13C492,631.66,582.3,353.19,573.24,332.62S447.47,366.42,399.18,598.5c-15.33,73.24-48.17,317-48.17,317s41.74-399.34,55.31-480.73C450,172.86,438.64,63.09,419.58,59.58S351,122.22,345,302.19s-9.61,355.14-.74,442.34c-18-178.19-7.88-394.73-118.07-506.83-18.21,47.5,30.06,202,48.24,281.12,17.42,74.48,47.3,306.74,47.3,306.74s-8.33-123.46-87.23-246.07C172,482.32,102.69,415.39,96.67,435S84.34,536.05,125.83,595.15,246.31,691.61,263.91,718s54.68,188.4,51.4,227c-2.68,31.59-13,52.54-13,52.54Z" transform="translate(-63.74 -23.54)"/><path class="cls-16" d="M367.9,997.59s-8.24-151.31,73.77-286.29C490.15,631.5,579.4,353.23,571.35,335S445.56,375.52,398.29,608.42c-15,73.33-47.28,307-47.28,307s40.12-396.71,53.69-478.1c43.65-261.87,30.53-371.69,13.58-374.81s-65.86,60.4-71.93,240.37-8.61,369.18-2.08,457.47c-18.9-178.3-11.61-401.08-116.64-517.46C212.49,296,258.37,440.22,276,519.86c16.86,74.62,48.32,322.75,48.32,322.75S314.9,707.42,236,584.82C173.48,487.64,104.25,420.89,98.9,438.28S86,535,127.47,594.07s120.08,96.26,137.68,122.67S319.89,906.41,316.61,945c-2.68,31.59-12.23,52.55-12.23,52.55Z" transform="translate(-63.74 -23.54)"/><path class="cls-17" d="M366.33,997.59s-8.5-151.47,73.5-286.46c48.48-79.79,136.66-357.86,129.62-373.85S443.66,384.63,397.4,618.35C382.79,691.75,351,915.45,351,915.45S389.51,521.36,403.08,440C446.73,178.11,431.81,68.23,417,65.5s-63.19,58.16-69.25,238.13-7.62,383.21-3.42,472.6C324.48,597.83,329,368.79,229.09,248.15,217,306.82,260.5,440.74,277.66,520.91,293.94,595.67,327,859.65,327,859.65s-10.58-146.91-89.47-269.51C175,493,105.81,426.39,101.13,441.61S87.61,533.89,129.1,593s119.69,96.07,137.29,122.47S321.19,906.4,317.91,945c-2.68,31.6-11.44,52.57-11.44,52.57Z" transform="translate(-63.74 -23.54)"/><path class="cls-18" d="M364.76,997.59S356,846,438,711c48.48-79.8,135.59-357.66,129.55-371.37s-125.8,54.13-171,288.67C382.26,701.75,351,915.45,351,915.45S387.89,524,401.46,442.59C445.11,180.73,428.4,70.81,415.69,68.47s-60.52,55.91-66.59,235.88-6.62,397.25-4.76,487.73c-20.76-178.5-19.07-413.8-113.79-538.71-9,64.25,32.09,187.89,48.74,268.59C295,596.86,329.63,876.7,329.63,876.7S317.93,718.07,239,595.46c-62.53-97.17-131.67-163.57-135.69-150.53s-14.11,87.88,27.38,147S250,687.78,267.63,714.19,322.49,906.39,319.21,945c-2.68,31.6-10.64,52.58-10.64,52.58Z" transform="translate(-63.74 -23.54)"/><path class="cls-19" d="M363.19,997.59s-9-151.8,73-286.78C484.64,631,570.68,353.36,565.65,341.93s-125.8,60.91-170,296.26C381.73,711.75,351,915.45,351,915.45s35.26-388.85,48.83-470.24C443.49,183.35,425,73.38,414.39,71.43s-57.84,53.67-63.91,233.65-5.64,411.27-6.11,502.85C322.69,629.32,321.57,387.78,232,258.6c-5.91,69.83,32.76,183.18,48.91,264.4,15.14,75,51.36,370.75,51.36,370.75s-12.83-170.36-91.72-293c-62.53-97.17-131.63-163.39-135-152.52s-14.71,83.48,26.79,142.57,118.9,95.68,136.5,122.08S323.79,906.38,320.51,945c-2.69,31.6-9.85,52.59-9.85,52.59Z" transform="translate(-63.74 -23.54)"/><path class="cls-20" d="M361.62,997.59s-9.31-152,72.7-287c48.48-79.8,133.46-357.24,129.43-366.38s-125.81,67.68-169,303.85C381.2,721.75,351,915.45,351,915.45s33.64-386.22,47.21-467.61C441.87,186,421.57,76,413.1,74.39s-55.18,51.44-61.25,231.41-4.64,425.3-7.44,518c-22.61-178.71-26.54-426.51-111-560-2.82,75.42,33.45,178.48,49.08,260.23,14.58,75.18,52.38,386.75,52.38,386.75S321,728.71,242.08,606.11c-62.53-97.18-131.6-163.22-134.27-154.53S92.51,530.66,134,589.75s118.51,95.48,136.11,121.88,55,194.74,51.69,233.36c-2.68,31.6-9,52.6-9,52.6Z" transform="translate(-63.74 -23.54)"/><path class="cls-21" d="M360,997.59s-9.57-152.13,72.44-287.11c48.48-79.8,132.39-357,129.37-363.89S436,421.05,393.84,658C380.66,731.75,351,915.45,351,915.45s32-383.6,45.58-465C440.25,188.6,418.15,78.53,411.8,77.36s-52.5,49.19-58.57,229.16-3.65,439.34-8.79,533.11C320.9,660.81,314.17,406.77,234.92,269c.25,81,34.12,173.78,49.25,256.06,14,75.32,53.39,402.75,53.39,402.75S322.49,734,243.6,611.43C181.07,514.26,112,448.39,110,454.91s-15.9,74.67,25.59,133.77S253.75,684,271.35,710.36s55,196,51.75,234.62c-2.68,31.59-8.24,52.61-8.24,52.61Z" transform="translate(-63.74 -23.54)"/><path class="cls-22" d="M358.47,997.59s-9.84-152.29,72.17-287.28C479.12,630.52,562,353.48,560,348.91S434.13,430.15,393,668C380.13,741.75,351,915.45,351,915.45s30.4-381,44-462.37c43.65-261.86,19.77-372,15.53-372.76s-49.83,47-55.9,226.92-2.66,453.37-10.12,548.24c-24.47-178.92-34-439.22-108.1-581.21,3.33,86.59,34.79,169.07,49.42,251.87,13.43,75.47,54.4,418.76,54.4,418.76S324,739.36,245.12,616.75C182.59,519.58,113.6,453.88,112.26,458.23s-16.49,70.27,25,129.37S255,682.68,272.59,709.08,327.68,906.34,324.4,945c-2.68,31.59-7.45,52.62-7.45,52.62Z" transform="translate(-63.74 -23.54)"/><path class="cls-23" d="M356.9,997.59s-10.1-152.46,71.9-287.44c48.48-79.8,130.26-356.62,129.26-358.91s-125.83,88-166,326.64C379.6,751.75,351,915.45,351,915.45s28.78-378.36,42.34-459.75c43.65-261.86,18-372,15.86-372.42S362.05,128,356,308s-1.67,467.41-11.47,563.37c-25.39-179-37.73-445.58-106.67-591.84,6.4,92.18,35.47,164.37,49.58,247.7C300.29,602.79,342.85,962,342.85,962s-17.32-217.27-96.21-339.88C184.11,524.9,115.16,459.38,114.49,461.56s-17.08,65.86,24.41,125S256.23,681.4,273.83,707.81,329,906.33,325.7,945c-2.68,31.59-6.65,52.63-6.65,52.63Z" transform="translate(-63.74 -23.54)"/><path class="cls-24" d="M355.33,997.59S345,845,427,710c48.48-79.8,129.19-356.42,129.19-356.42s-125.84,94.79-165,334.23c-12.1,74-40.16,227.65-40.16,227.65s27.15-375.73,40.72-457.12c43.65-261.87,16.18-372.08,16.18-372.08s-44.49,42.46-50.56,222.44-.67,481.43-12.81,578.49C318.22,708.05,303.08,435.25,239.3,284.72c9.48,97.76,36.14,159.66,49.75,243.52C301.34,604,345.49,979,345.49,979s-18.44-229-97.33-351.6c-62.53-97.17-131.44-162.52-131.44-162.52S99,526.34,140.53,585.44s116.94,94.69,134.54,121.09S330.28,906.32,327,944.94c-2.69,31.6-5.85,52.65-5.85,52.65Z" transform="translate(-63.74 -23.54)"/><path class="cls-25" d="M455.12,1252.2H232.17l12-256.34h195Zm-219.32-3.46H451.45L435.93,999.32H247.43Z" transform="translate(-63.74 -23.54)"/></g><g class="cls-26"><path class="cls-27" d="M207.09,556.75c-7.6-4-25.1-5.45-43.2-13.51-16.7-7.42-74.42-20.8-83-23.07s-8-25.81,1.72-28,53.58-2.74,89.6,13.26c18.31,8.14,44.38,28.32,48.61,34.37S214.69,560.74,207.09,556.75Z" transform="translate(-63.74 -23.54)"/><path class="cls-28" d="M206.32,555.79c-7.13-3.75-24.21-5.64-42.32-13.69-16.69-7.43-72.47-20.51-82.45-22.55-8-2.13-7.51-24.32,1.6-26.36,11.11-2.12,53.9-2.11,88.73,13.36,18.31,8.14,43.43,27.59,47.4,33.27S213.44,559.54,206.32,555.79Z" transform="translate(-63.74 -23.54)"/><path class="cls-29" d="M205.55,554.84c-6.67-3.51-23.33-5.83-41.43-13.89-16.7-7.43-70.52-20.21-81.94-22-7.48-2-7-22.81,1.5-24.72,12.48-2.07,54.21-1.48,87.84,13.46,18.31,8.14,42.49,26.87,46.2,32.18S212.2,558.34,205.55,554.84Z" transform="translate(-63.74 -23.54)"/><path class="cls-30" d="M204.77,553.89c-6.19-3.27-22.43-6-40.54-14.09-16.69-7.43-68.56-19.91-81.41-21.5-6.95-1.84-6.52-21.32,1.38-23.08,13.87-2,54.53-.86,87,13.55,18.31,8.14,41.53,26.15,45,31.08S211,557.14,204.77,553.89Z" transform="translate(-63.74 -23.54)"/><path class="cls-31" d="M204,552.94c-5.72-3-21.55-6.23-39.65-14.29-16.7-7.43-66.62-19.6-80.9-21-6.41-1.7-6-19.82,1.27-21.45,15.25-2,54.85-.23,86.09,13.65,18.31,8.14,40.59,25.43,43.79,30S209.7,555.93,204,552.94Z" transform="translate(-63.74 -23.54)"/><path class="cls-32" d="M203.23,552c-5.26-2.77-20.66-6.42-38.77-14.48-16.69-7.42-64.66-19.3-80.37-20.44-5.88-1.56-5.53-18.33,1.15-19.82,16.64-1.92,55.17.4,85.21,13.75,18.31,8.14,39.65,24.71,42.59,28.89S208.46,554.73,203.23,552Z" transform="translate(-63.74 -23.54)"/><path class="cls-33" d="M202.46,551c-4.79-2.53-19.78-6.62-37.88-14.67-16.7-7.43-62.72-19-79.86-19.93-5.34-1.41-5-16.83,1-18.18,18-1.87,55.48,1,84.33,13.85,18.31,8.14,38.7,24,41.39,27.8S207.21,553.53,202.46,551Z" transform="translate(-63.74 -23.54)"/><path class="cls-34" d="M201.69,550.08c-4.32-2.29-18.89-6.81-37-14.87-16.69-7.43-60.76-18.71-79.33-19.4-4.81-1.27-4.54-15.33.93-16.55,19.4-1.82,55.8,1.66,83.45,14,18.31,8.14,37.76,23.26,40.19,26.7S206,552.33,201.69,550.08Z" transform="translate(-63.74 -23.54)"/><path class="cls-35" d="M200.92,549.13c-3.86-2-18-7-36.11-15.07-16.7-7.43-58.81-18.4-78.82-18.87-4.27-1.13-4-13.84.82-14.92,20.79-1.77,56.12,2.29,82.58,14.05,18.31,8.14,36.81,22.54,39,25.61S204.72,551.12,200.92,549.13Z" transform="translate(-63.74 -23.54)"/><path class="cls-36" d="M200.14,548.17c-3.38-1.79-17.11-7.2-35.22-15.26-16.69-7.43-56.86-18.1-78.29-18.34-3.74-1-3.55-12.34.71-13.29,22.16-1.71,56.43,2.92,81.69,14.15,18.31,8.15,35.87,21.82,37.78,24.51S203.47,549.92,200.14,548.17Z" transform="translate(-63.74 -23.54)"/><path class="cls-37" d="M199.37,547.22c-2.92-1.55-16.23-7.4-34.33-15.46-16.7-7.42-54.91-17.8-77.78-17.81-3.2-.85-3.05-10.85.6-11.66,23.55-1.66,56.75,3.55,80.82,14.25,18.3,8.15,34.92,21.09,36.57,23.42S202.22,548.72,199.37,547.22Z" transform="translate(-63.74 -23.54)"/><path class="cls-38" d="M198.6,546.27c-2.45-1.31-15.34-7.6-33.45-15.65-16.69-7.43-52.95-17.51-77.25-17.3-2.67-.71-2.56-9.34.48-10,24.93-1.61,57.07,4.18,79.94,14.35,18.31,8.15,34,20.37,35.37,22.32S201,547.52,198.6,546.27Z" transform="translate(-63.74 -23.54)"/><path class="cls-39" d="M197.83,545.32c-2-1.07-14.46-7.79-32.56-15.85-16.7-7.43-51-17.2-76.74-16.77-2.13-.57-2.06-7.85.37-8.39,26.32-1.56,57.39,4.81,79.06,14.45,18.31,8.15,33,19.65,34.17,21.23S199.73,546.32,197.83,545.32Z" transform="translate(-63.74 -23.54)"/><path class="cls-40" d="M197.06,544.36a350.28,350.28,0,0,0-31.68-16c-16.69-7.43-49-16.9-76.21-16.24-1.61-.43-1.57-6.35.26-6.76,27.69-1.51,57.7,5.44,78.18,14.55,18.31,8.15,32.08,18.93,33,20.13S198.48,545.11,197.06,544.36Z" transform="translate(-63.74 -23.54)"/><path class="cls-41" d="M196.28,543.41a254,254,0,0,0-30.78-16.24c-16.7-7.43-47.1-16.6-75.7-15.71-1.07-.29-1.07-4.86.15-5.13,29.08-1.46,58,6.07,77.3,14.65,18.31,8.15,31.14,18.21,31.77,19S197.23,543.91,196.28,543.41Z" transform="translate(-63.74 -23.54)"/><path class="cls-42" d="M195.51,542.46A191.08,191.08,0,0,0,165.61,526c-16.69-7.42-45.15-16.3-75.17-15.19-.54-.14-.58-3.35,0-3.49,30.46-1.41,58.34,6.7,76.43,14.75,18.3,8.15,30.19,17.48,30.56,17.94S196,542.71,195.51,542.46Z" transform="translate(-63.74 -23.54)"/><path class="cls-25" d="M194.74,541.51c-.11-.09-10.91-8.58-29-16.63-16.7-7.43-43.2-16-74.66-14.67L91,508.35c31.85-1.35,58.66,7.33,75.55,14.85,18.31,8.15,29.25,16.76,29.36,16.85Z" transform="translate(-63.74 -23.54)"/></g><g class="cls-26"><path class="cls-27" d="M318.32,378.81c-6.08-2.83-20.93-2.26-35.59-7.67-13.51-5-61.58-11-68.67-12.12s-4.05-22.79,4.52-25.84,46.26-8.35,75.42,2.4c14.83,5.46,35,21.12,38,26.21S324.41,381.65,318.32,378.81Z" transform="translate(-63.74 -23.54)"/><path class="cls-28" d="M317.76,378c-5.71-2.66-20.15-2.53-34.81-7.95-13.51-5-59.93-10.91-68.27-11.69-6.65-1.08-3.8-21.48,4.24-24.33,9.76-3.16,46.47-7.81,74.66,2.58,14.82,5.47,34.25,20.57,37,25.34S323.47,380.68,317.76,378Z" transform="translate(-63.74 -23.54)"/><path class="cls-29" d="M317.21,377.24c-5.34-2.5-19.38-2.81-34-8.23-13.52-5-58.3-10.85-67.89-11.27-6.21-1-3.53-20.16,4-22.82,10.94-3.26,46.67-7.27,73.89,2.77,14.82,5.47,33.52,20,36.13,24.47S322.53,379.72,317.21,377.24Z" transform="translate(-63.74 -23.54)"/><path class="cls-30" d="M316.65,376.45c-5-2.32-18.59-3.09-33.25-8.51-13.51-5-56.65-10.78-67.5-10.84-5.76-.94-3.27-18.84,3.7-21.32,12.12-3.36,46.87-6.72,73.13,3,14.82,5.46,32.78,19.45,35.21,23.59S321.59,378.75,316.65,376.45Z" transform="translate(-63.74 -23.54)"/><path class="cls-31" d="M316.09,375.66c-4.59-2.15-17.81-3.36-32.47-8.78-13.51-5-55-10.72-67.11-10.42-5.31-.86-3-17.52,3.43-19.81,13.29-3.46,47.07-6.18,72.36,3.15,14.82,5.47,32.06,18.89,34.3,22.72S320.65,377.79,316.09,375.66Z" transform="translate(-63.74 -23.54)"/><path class="cls-32" d="M315.53,374.87c-4.21-2-17-3.64-31.68-9.05-13.52-5-53.37-10.66-66.72-10-4.88-.79-2.75-16.2,3.14-18.3,14.48-3.56,47.29-5.63,71.6,3.34,14.82,5.47,31.33,18.33,33.39,21.85S319.71,376.82,315.53,374.87Z" transform="translate(-63.74 -23.54)"/><path class="cls-33" d="M315,374.08c-3.83-1.8-16.24-3.91-30.9-9.33-13.51-5-51.73-10.6-66.33-9.57-4.43-.72-2.49-14.88,2.87-16.79,15.66-3.67,47.49-5.09,70.84,3.52,14.82,5.48,30.59,17.78,32.48,21S318.77,375.85,315,374.08Z" transform="translate(-63.74 -23.54)"/><path class="cls-34" d="M314.41,373.29c-3.46-1.62-15.46-4.19-30.12-9.6-13.51-5-50.08-10.54-65.94-9.15-4-.65-2.22-13.56,2.6-15.28,16.84-3.77,47.69-4.55,70.07,3.71,14.82,5.47,29.86,17.21,31.57,20.1S317.84,374.89,314.41,373.29Z" transform="translate(-63.74 -23.54)"/><path class="cls-35" d="M313.85,372.5c-3.08-1.45-14.68-4.46-29.33-9.88-13.51-5-48.45-10.47-65.56-8.72-3.54-.57-2-12.24,2.33-13.77,18-3.88,47.89-4,69.31,3.9,14.82,5.47,29.12,16.65,30.65,19.23S316.9,373.92,313.85,372.5Z" transform="translate(-63.74 -23.54)"/><path class="cls-36" d="M313.3,371.71c-2.71-1.28-13.9-4.74-28.56-10.15-13.51-5-46.8-10.41-65.16-8.3-3.11-.5-1.7-10.92,2-12.26,19.2-4,48.09-3.46,68.54,4.08,14.82,5.48,28.39,16.1,29.74,18.36S316,373,313.3,371.71Z" transform="translate(-63.74 -23.54)"/><path class="cls-37" d="M312.74,370.92c-2.34-1.1-13.12-5-27.77-10.43-13.52-5-45.17-10.34-64.78-7.87-2.66-.43-1.44-9.61,1.78-10.75,20.38-4.09,48.3-2.92,67.77,4.27,14.82,5.47,27.67,15.54,28.83,17.48S315,372,312.74,370.92Z" transform="translate(-63.74 -23.54)"/><path class="cls-38" d="M312.18,370.13c-2-.93-12.33-5.29-27-10.7-13.51-5-43.52-10.29-64.39-7.45-2.22-.36-1.17-8.29,1.51-9.24,21.56-4.19,48.5-2.38,67,4.46,14.82,5.47,26.93,15,27.91,16.61S314.08,371,312.18,370.13Z" transform="translate(-63.74 -23.54)"/><path class="cls-39" d="M311.62,369.34c-1.58-.75-11.55-5.56-26.21-11-13.51-5-41.88-10.22-64-7-1.77-.29-.91-7,1.23-7.73,22.75-4.29,48.71-1.84,66.25,4.64,14.82,5.48,26.2,14.42,27,15.74S313.14,370.05,311.62,369.34Z" transform="translate(-63.74 -23.54)"/><path class="cls-40" d="M311.06,368.56a212.21,212.21,0,0,0-25.42-11.26c-13.52-5-40.24-10.16-63.61-6.6-1.33-.21-.66-5.65.95-6.22,23.92-4.4,48.91-1.3,65.49,4.83,14.81,5.48,25.46,13.86,26.09,14.86S312.2,369.09,311.06,368.56Z" transform="translate(-63.74 -23.54)"/><path class="cls-41" d="M310.5,367.77a154.75,154.75,0,0,0-24.64-11.54c-13.51-5-38.6-10.09-63.22-6.17-.89-.14-.39-4.33.68-4.71,25.1-4.5,49.12-.75,64.72,5,14.82,5.48,24.73,13.3,25.18,14S311.26,368.12,310.5,367.77Z" transform="translate(-63.74 -23.54)"/><path class="cls-42" d="M310,367a117.16,117.16,0,0,0-23.87-11.81,127.61,127.61,0,0,0-62.83-5.75c-.44-.07-.13-3,.41-3.2,26.28-4.61,49.32-.21,64,5.2,14.82,5.48,24,12.74,24.27,13.12S310.33,367.16,310,367Z" transform="translate(-63.74 -23.54)"/><path class="cls-25" d="M309.39,366.19c-.09-.07-8.43-6.67-23.08-12.09a121,121,0,0,0-62.45-5.32l.14-1.69a122.2,122.2,0,0,1,63.19,5.39c14.81,5.48,23.26,12.18,23.35,12.24Z" transform="translate(-63.74 -23.54)"/></g><g class="cls-26"><path class="cls-27" d="M323.17,429.7c-5.17-.54-16.81,5-29.08,5-11.32,0-50,10.72-55.76,12.05s-6.18-19.37.18-25,35.41-23.15,59.82-23.18c12.41,0,30.36,7.47,33.37,11.1S328.34,430.23,323.17,429.7Z" transform="translate(-63.74 -23.54)"/><path class="cls-28" d="M322.63,429.17c-4.86-.51-16.23,4.47-28.51,4.47-11.31,0-48.71,10.22-55.39,12.31-5.38,1.25-5.8-18.26.17-23.57,7.28-6.15,35.63-22.72,59.23-22.74,12.41,0,29.71,7.2,32.54,10.6S327.48,429.67,322.63,429.17Z" transform="translate(-63.74 -23.54)"/><path class="cls-29" d="M322.08,428.64c-4.53-.48-15.65,3.95-27.92,3.95-11.31,0-47.41,9.73-55,12.57-5,1.17-5.42-17.15.15-22.1,8.2-6.64,35.86-22.3,58.65-22.32,12.41,0,29.07,6.94,31.71,10.12S326.61,429.11,322.08,428.64Z" transform="translate(-63.74 -23.54)"/><path class="cls-30" d="M321.54,428.11c-4.22-.44-15.07,3.44-27.34,3.44-11.31,0-46.11,9.23-54.67,12.82-4.67,1.09-5.05-16,.13-20.63,9.12-7.13,36.09-21.88,58.07-21.89,12.41,0,28.42,6.67,30.87,9.63S325.74,428.54,321.54,428.11Z" transform="translate(-63.74 -23.54)"/><path class="cls-31" d="M321,427.58c-3.9-.41-14.49,2.92-26.76,2.92-11.32,0-44.8,8.74-54.31,13.08-4.31,1-4.67-14.92.11-19.17,10-7.62,36.33-21.44,57.5-21.46,12.4,0,27.76,6.41,30,9.14S324.87,428,321,427.58Z" transform="translate(-63.74 -23.54)"/><path class="cls-32" d="M320.45,427.05c-3.58-.38-13.91,2.41-26.18,2.41-11.31,0-43.49,8.24-53.94,13.34-4,.92-4.29-13.82.09-17.71,11-8.11,36.56-21,56.92-21,12.41,0,27.11,6.14,29.2,8.65S324,427.41,320.45,427.05Z" transform="translate(-63.74 -23.54)"/><path class="cls-33" d="M319.91,426.52c-3.26-.35-13.33,1.9-25.6,1.9-11.31,0-42.19,7.75-53.58,13.59-3.59.83-3.91-12.71.07-16.24,11.87-8.61,36.79-20.6,56.34-20.61,12.41,0,26.46,5.89,28.37,8.17S323.14,426.85,319.91,426.52Z" transform="translate(-63.74 -23.54)"/><path class="cls-34" d="M319.36,426c-2.94-.32-12.74,1.38-25,1.38-11.32,0-40.89,7.26-53.22,13.85-3.23.75-3.53-11.59.05-14.77,12.79-9.1,37-20.18,55.76-20.19,12.41,0,25.81,5.63,27.54,7.68S322.27,426.29,319.36,426Z" transform="translate(-63.74 -23.54)"/><path class="cls-35" d="M318.82,425.46c-2.62-.29-12.16.87-24.44.87-11.31,0-39.58,6.76-52.85,14.1-2.87.67-3.15-10.48,0-13.31,13.71-9.58,37.26-19.74,55.19-19.75,12.4,0,25.15,5.36,26.69,7.19S321.41,425.72,318.82,425.46Z" transform="translate(-63.74 -23.54)"/><path class="cls-36" d="M318.28,424.93c-2.31-.26-11.59.35-23.86.35-11.31,0-38.28,6.27-52.49,14.36-2.52.59-2.77-9.36,0-11.84,14.63-10.08,37.49-19.32,54.61-19.33,12.4,0,24.5,5.1,25.86,6.71S320.54,425.16,318.28,424.93Z" transform="translate(-63.74 -23.54)"/><path class="cls-37" d="M317.73,424.4c-2-.23-11-.16-23.27-.16-11.32,0-37,5.77-52.13,14.62-2.16.5-2.4-8.26,0-10.38,15.55-10.57,37.72-18.9,54-18.9,12.41,0,23.85,4.83,25,6.21S319.67,424.6,317.73,424.4Z" transform="translate(-63.74 -23.54)"/><path class="cls-38" d="M317.19,423.87c-1.67-.19-10.42-.67-22.69-.67-11.32,0-35.68,5.27-51.77,14.87-1.8.42-2-7.15,0-8.92,16.46-11.06,38-18.47,53.45-18.47,12.41,0,23.21,4.57,24.2,5.73S318.81,424,317.19,423.87Z" transform="translate(-63.74 -23.54)"/><path class="cls-39" d="M316.65,423.34a189.51,189.51,0,0,0-22.12-1.19c-11.31,0-34.37,4.78-51.41,15.13-1.43.34-1.63-6,0-7.45,17.38-11.55,38.19-18,52.87-18.05,12.41,0,22.56,4.32,23.37,5.25S317.94,423.47,316.65,423.34Z" transform="translate(-63.74 -23.54)"/><path class="cls-40" d="M316.1,422.8a132.32,132.32,0,0,0-21.53-1.69c-11.31,0-33.07,4.29-51,15.38-1.07.25-1.25-4.92-.06-6,18.3-12,38.42-17.62,52.3-17.62,12.4,0,21.9,4.05,22.52,4.75S317.07,422.91,316.1,422.8Z" transform="translate(-63.74 -23.54)"/><path class="cls-41" d="M315.56,422.27a94.94,94.94,0,0,0-20.95-2.21c-11.32,0-31.77,3.8-50.69,15.65-.71.16-.87-3.82-.08-4.52,19.22-12.54,38.65-17.2,51.72-17.2,12.4,0,21.25,3.79,21.69,4.27S316.2,422.34,315.56,422.27Z" transform="translate(-63.74 -23.54)"/><path class="cls-42" d="M315,421.74A70.8,70.8,0,0,0,294.64,419c-11.31,0-30.46,3.3-50.32,15.9-.36.08-.49-2.7-.09-3.06,20.13-13,38.88-16.77,51.13-16.76,12.41,0,20.6,3.52,20.86,3.78S315.34,421.78,315,421.74Z" transform="translate(-63.74 -23.54)"/><path class="cls-25" d="M314.47,421.21c-.07,0-7.52-3.23-19.79-3.23-11.31,0-29.16,2.8-50,16.15l-.11-1.59c21.05-13.51,39.11-16.34,50.55-16.34,12.41,0,19.95,3.26,20,3.3Z" transform="translate(-63.74 -23.54)"/></g><g class="cls-26"><path class="cls-27" d="M423.7,228.35c-5,1.32-14,10.6-25.45,14.93-10.59,4-43,27.68-47.91,31s-12.63-15.95-8.67-23.49,25-34.15,47.79-42.79c11.6-4.39,31-3.74,35.14-1.4S428.73,227,423.7,228.35Z" transform="translate(-63.74 -23.54)"/><path class="cls-28" d="M423,228.05c-4.72,1.24-13.61,9.91-25.09,14.24-10.59,4-42,26.75-47.49,31.07-4.59,3.07-11.87-15-8.16-22.11,4.64-8.32,25.32-33.84,47.39-42.18,11.61-4.39,30.34-3.76,34.19-1.57S427.72,226.8,423,228.05Z" transform="translate(-63.74 -23.54)"/><path class="cls-29" d="M422.31,227.74c-4.41,1.16-13.25,9.23-24.73,13.56-10.58,4-40.92,25.83-47.05,31.18-4.29,2.87-11.13-14.13-7.67-20.73,5.33-9.11,25.69-33.52,47-41.58,11.6-4.39,29.64-3.77,33.23-1.73S426.71,226.58,422.31,227.74Z" transform="translate(-63.74 -23.54)"/><path class="cls-30" d="M421.61,227.44c-4.1,1.07-12.88,8.54-24.36,12.87-10.59,4-39.88,24.91-46.63,31.29-4,2.67-10.38-13.22-7.16-19.35,6-9.89,26.05-33.21,46.61-41,11.61-4.39,28.94-3.78,32.28-1.89S425.7,226.36,421.61,227.44Z" transform="translate(-63.74 -23.54)"/><path class="cls-31" d="M420.92,227.13c-3.79,1-12.52,7.86-24,12.19-10.58,4-38.83,24-46.19,31.4-3.68,2.46-9.64-12.31-6.67-18,6.71-10.67,26.42-32.89,46.23-40.38,11.6-4.38,28.23-3.8,31.33-2.05S424.69,226.14,420.92,227.13Z" transform="translate(-63.74 -23.54)"/><path class="cls-32" d="M420.22,226.83c-3.48.91-12.16,7.17-23.64,11.5-10.59,4-37.79,23.06-45.77,31.52-3.37,2.25-8.88-11.42-6.16-16.6,7.39-11.46,26.79-32.57,45.83-39.77,11.61-4.39,27.54-3.82,30.38-2.21S423.68,225.92,420.22,226.83Z" transform="translate(-63.74 -23.54)"/><path class="cls-33" d="M419.53,226.52c-3.18.83-11.8,6.49-23.28,10.82-10.59,4-36.75,22.14-45.34,31.63-3.06,2-8.14-10.51-5.67-15.22,8.08-12.24,27.16-32.26,45.45-39.17,11.6-4.38,26.83-3.83,29.42-2.37S422.67,225.7,419.53,226.52Z" transform="translate(-63.74 -23.54)"/><path class="cls-34" d="M418.83,226.22c-2.86.74-11.44,5.8-22.92,10.13-10.58,4-35.7,21.22-44.9,31.74-2.76,1.84-7.4-9.6-5.17-13.84,8.76-13,27.52-31.94,45.05-38.57,11.61-4.38,26.13-3.85,28.47-2.53S421.66,225.48,418.83,226.22Z" transform="translate(-63.74 -23.54)"/><path class="cls-35" d="M418.13,225.92c-2.55.66-11.07,5.11-22.55,9.44-10.59,4-34.66,20.3-44.48,31.85-2.45,1.64-6.64-8.69-4.66-12.46,9.44-13.81,27.88-31.63,44.65-38,11.61-4.39,25.43-3.87,27.52-2.7S420.65,225.25,418.13,225.92Z" transform="translate(-63.74 -23.54)"/><path class="cls-36" d="M417.44,225.61c-2.25.58-10.71,4.43-22.2,8.76-10.58,4-33.61,19.37-44,32-2.15,1.44-5.9-7.78-4.17-11.08,10.13-14.59,28.26-31.31,44.27-37.36C402.91,213.51,416,214,417.87,215S419.64,225,417.44,225.61Z" transform="translate(-63.74 -23.54)"/><path class="cls-37" d="M416.74,225.31c-1.93.49-10.35,3.74-21.83,8.07-10.58,4-32.56,18.45-43.62,32.08-1.83,1.23-5.15-6.89-3.66-9.71,10.81-15.38,28.62-31,43.87-36.76,11.61-4.38,24-3.89,25.62-3S418.63,224.81,416.74,225.31Z" transform="translate(-63.74 -23.54)"/><path class="cls-38" d="M416.05,225c-1.63.42-10,3.06-21.47,7.39-10.59,4-31.52,17.53-43.19,32.19-1.53,1-4.41-6-3.17-8.33,11.5-16.16,29-30.68,43.49-36.16,11.61-4.37,23.32-3.91,24.66-3.18S417.62,224.59,416.05,225Z" transform="translate(-63.74 -23.54)"/><path class="cls-39" d="M415.35,224.7a191.32,191.32,0,0,0-21.11,6.7c-10.58,4-30.47,16.61-42.76,32.3-1.22.82-3.65-5.07-2.66-7,12.18-16.94,29.35-30.36,43.09-35.54,11.61-4.38,22.63-3.93,23.71-3.34S416.61,224.37,415.35,224.7Z" transform="translate(-63.74 -23.54)"/><path class="cls-40" d="M414.65,224.4a130.64,130.64,0,0,0-20.74,6c-10.59,4-29.43,15.68-42.33,32.41-.92.62-2.91-4.16-2.17-5.58,12.87-17.72,29.73-30,42.71-34.94,11.61-4.38,21.92-3.94,22.75-3.5S415.6,224.15,414.65,224.4Z" transform="translate(-63.74 -23.54)"/><path class="cls-41" d="M414,224.09a94.61,94.61,0,0,0-20.38,5.33c-10.59,4-28.39,14.76-41.9,32.52-.62.41-2.17-3.25-1.67-4.2,13.55-18.51,30.09-29.73,42.31-34.34,11.61-4.37,21.22-4,21.81-3.66S414.59,223.93,414,224.09Z" transform="translate(-63.74 -23.54)"/><path class="cls-42" d="M413.26,223.79a70.62,70.62,0,0,0-20,4.64c-10.58,4-27.34,13.84-41.47,32.64-.3.2-1.42-2.36-1.17-2.83,14.24-19.29,30.46-29.41,41.93-33.73s20.52-4,20.85-3.83S413.58,223.71,413.26,223.79Z" transform="translate(-63.74 -23.54)"/><path class="cls-25" d="M412.57,223.48c-.08,0-8.18-.37-19.66,4-10.59,4-26.3,12.92-41,32.75l-.67-1.45c14.92-20.07,30.82-29.1,41.53-33.13,11.61-4.37,19.82-4,19.9-4Z" transform="translate(-63.74 -23.54)"/></g><g class="cls-26"><path class="cls-27" d="M340.24,439.27c5-1.44,13.72-10.92,25.09-15.52,10.49-4.24,42.35-28.69,47.17-32.08s13,15.64,9.21,23.27S397.58,449.67,375,458.85c-11.5,4.66-30.95,4.47-35.1,2.23S335.24,440.72,340.24,439.27Z" transform="translate(-63.74 -23.54)"/><path class="cls-28" d="M340.94,439.56c4.69-1.35,13.37-10.23,24.75-14.83,10.49-4.24,41.32-27.74,46.73-32.18,4.53-3.19,12.23,14.75,8.69,21.9-4.45,8.43-24.52,34.43-46.39,43.3-11.5,4.66-30.24,4.47-34.14,2.37S336.26,440.91,340.94,439.56Z" transform="translate(-63.74 -23.54)"/><path class="cls-29" d="M341.64,439.85c4.38-1.26,13-9.54,24.41-14.14,10.48-4.24,40.3-26.79,46.3-32.28,4.22-3,11.46,13.86,8.15,20.54-5.11,9.23-24.89,34.12-46,42.68-11.5,4.66-29.54,4.47-33.18,2.51S337.27,441.11,341.64,439.85Z" transform="translate(-63.74 -23.54)"/><path class="cls-30" d="M342.35,440.14c4.07-1.17,12.68-8.84,24-13.45,10.49-4.24,39.28-25.84,45.87-32.38,3.92-2.76,10.7,13,7.62,19.17-5.78,10-25.26,33.82-45.63,42.07-11.5,4.66-28.84,4.47-32.23,2.65S338.29,441.31,342.35,440.14Z" transform="translate(-63.74 -23.54)"/><path class="cls-31" d="M343.05,440.42c3.77-1.08,12.33-8.14,23.71-12.74,10.49-4.25,38.26-24.9,45.44-32.49,3.62-2.55,9.92,12.08,7.09,17.81-6.45,10.83-25.64,33.5-45.26,41.46-11.5,4.65-28.14,4.46-31.27,2.78S339.3,441.51,343.05,440.42Z" transform="translate(-63.74 -23.54)"/><path class="cls-32" d="M343.75,440.71c3.46-1,12-7.45,23.37-12,10.48-4.25,37.23-24,45-32.59,3.32-2.34,9.16,11.2,6.56,16.44-7.11,11.63-26,33.2-44.88,40.85-11.5,4.66-27.44,4.46-30.31,2.93S340.32,441.7,343.75,440.71Z" transform="translate(-63.74 -23.54)"/><path class="cls-33" d="M344.46,441c3.15-.9,11.64-6.76,23-11.36,10.49-4.24,36.21-23,44.58-32.69,3-2.12,8.39,10.31,6,15.08-7.78,12.43-26.38,32.89-44.5,40.23-11.5,4.66-26.74,4.47-29.36,3.07S341.33,441.9,344.46,441Z" transform="translate(-63.74 -23.54)"/><path class="cls-34" d="M345.16,441.29c2.84-.81,11.3-6.07,22.67-10.67,10.49-4.24,35.19-22.06,44.14-32.79,2.72-1.91,7.62,9.42,5.5,13.71-8.45,13.23-26.76,32.59-44.13,39.62-11.5,4.66-26,4.47-28.4,3.21S342.35,442.1,345.16,441.29Z" transform="translate(-63.74 -23.54)"/><path class="cls-35" d="M345.86,441.57c2.54-.72,10.95-5.37,22.33-10,10.49-4.24,34.16-21.11,43.71-32.89,2.41-1.7,6.85,8.53,5,12.35-9.11,14-27.13,32.27-43.75,39-11.5,4.66-25.33,4.47-27.45,3.35S343.36,442.3,345.86,441.57Z" transform="translate(-63.74 -23.54)"/><path class="cls-36" d="M346.57,441.86c2.23-.63,10.6-4.67,22-9.28,10.48-4.24,33.14-20.16,43.28-33,2.1-1.49,6.08,7.64,4.42,11-9.78,14.83-27.51,32-43.37,38.4-11.5,4.65-24.63,4.46-26.49,3.48S344.38,442.49,346.57,441.86Z" transform="translate(-63.74 -23.54)"/><path class="cls-37" d="M347.27,442.15c1.92-.54,10.26-4,21.63-8.58,10.49-4.25,32.12-19.22,42.85-33.1,1.81-1.28,5.31,6.76,3.9,9.62-10.45,15.62-27.89,31.66-43,37.78-11.5,4.65-23.93,4.46-25.54,3.62S345.39,442.69,347.27,442.15Z" transform="translate(-63.74 -23.54)"/><path class="cls-38" d="M348,442.44c1.62-.45,9.91-3.29,21.29-7.89,10.49-4.25,31.1-18.27,42.42-33.2,1.5-1.06,4.54,5.87,3.36,8.25C403.93,426,386.78,441,372.42,446.77c-11.5,4.65-23.23,4.46-24.58,3.76S346.41,442.89,348,442.44Z" transform="translate(-63.74 -23.54)"/><path class="cls-39" d="M348.67,442.72a188.25,188.25,0,0,0,20.95-7.19c10.48-4.24,30.07-17.32,42-33.3,1.21-.85,3.78,5,2.83,6.89-11.78,17.22-28.63,31.05-42.24,36.55-11.51,4.65-22.53,4.46-23.63,3.9S347.43,443.09,348.67,442.72Z" transform="translate(-63.74 -23.54)"/><path class="cls-40" d="M349.38,443a131.21,131.21,0,0,0,20.59-6.5c10.49-4.24,29.06-16.38,41.56-33.4.9-.64,3,4.09,2.29,5.52-12.44,18-29,30.74-41.86,35.95-11.51,4.64-21.83,4.46-22.67,4S348.44,443.28,349.38,443Z" transform="translate(-63.74 -23.54)"/><path class="cls-41" d="M350.08,443.3a95.05,95.05,0,0,0,20.25-5.81c10.49-4.24,28-15.43,41.12-33.5.6-.43,2.24,3.2,1.77,4.16-13.11,18.82-29.38,30.43-41.5,35.33-11.5,4.65-21.12,4.46-21.71,4.18S349.46,443.48,350.08,443.3Z" transform="translate(-63.74 -23.54)"/><path class="cls-42" d="M350.78,443.59a70.49,70.49,0,0,0,19.91-5.12c10.49-4.24,27-14.48,40.69-33.6.3-.21,1.47,2.32,1.23,2.79-13.78,19.63-29.75,30.13-41.12,34.72s-20.41,4.46-20.75,4.32S350.47,443.68,350.78,443.59Z" transform="translate(-63.74 -23.54)"/><path class="cls-25" d="M351.49,443.87c.08,0,8.18.19,19.56-4.41,10.48-4.25,26-13.54,40.25-33.71l.7,1.43c-14.44,20.42-30.12,29.82-40.74,34.1-11.5,4.65-19.71,4.46-19.79,4.46Z" transform="translate(-63.74 -23.54)"/></g></g></g></svg>