<svg id="Layer_1" data-name="Layer 1" xmlns="http://www.w3.org/2000/svg" xmlns:xlink="http://www.w3.org/1999/xlink" viewBox="0 0 434.19 586.62"><defs><style>.cls-1{fill:none;}.cls-2{clip-path:url(#clip-path);}.cls-26,.cls-3{opacity:0;}.cls-3{fill:url(#linear-gradient);}.cls-4{opacity:0.05;fill:url(#linear-gradient-2);}.cls-5{opacity:0.1;fill:url(#linear-gradient-3);}.cls-6{opacity:0.14;fill:url(#linear-gradient-4);}.cls-7{opacity:0.19;fill:url(#linear-gradient-5);}.cls-8{opacity:0.24;fill:url(#linear-gradient-6);}.cls-9{opacity:0.29;fill:url(#linear-gradient-7);}.cls-10{opacity:0.33;fill:url(#linear-gradient-8);}.cls-11{opacity:0.38;fill:url(#linear-gradient-9);}.cls-12{opacity:0.43;fill:url(#linear-gradient-10);}.cls-13{opacity:0.48;fill:url(#linear-gradient-11);}.cls-14{opacity:0.52;fill:url(#linear-gradient-12);}.cls-15{opacity:0.57;fill:url(#linear-gradient-13);}.cls-16{opacity:0.62;fill:url(#linear-gradient-14);}.cls-17{opacity:0.67;fill:url(#linear-gradient-15);}.cls-18{opacity:0.71;fill:url(#linear-gradient-16);}.cls-19{opacity:0.76;fill:url(#linear-gradient-17);}.cls-20{opacity:0.81;fill:url(#linear-gradient-18);}.cls-21{opacity:0.86;fill:url(#linear-gradient-19);}.cls-22{opacity:0.9;fill:url(#linear-gradient-20);}.cls-23{opacity:0.95;fill:url(#linear-gradient-21);}.cls-24{fill:url(#linear-gradient-22);}.cls-25{opacity:0.17;}.cls-26,.cls-27,.cls-28,.cls-29,.cls-30,.cls-31,.cls-32,.cls-33,.cls-34,.cls-35,.cls-36,.cls-37,.cls-38,.cls-39,.cls-40,.cls-41,.cls-42{fill:#fde7a1;}.cls-27{opacity:0.06;}.cls-28{opacity:0.13;}.cls-29{opacity:0.19;}.cls-30{opacity:0.25;}.cls-31{opacity:0.31;}.cls-32{opacity:0.38;}.cls-33{opacity:0.44;}.cls-34{opacity:0.5;}.cls-35{opacity:0.56;}.cls-36{opacity:0.63;}.cls-37{opacity:0.69;}.cls-38{opacity:0.75;}.cls-39{opacity:0.81;}.cls-40{opacity:0.88;}.cls-41{opacity:0.94;}</style><clipPath id="clip-path"><rect class="cls-1" x="3.02" y="1.04" width="429.91" height="587.27"/></clipPath><linearGradient id="linear-gradient" x1="66.76" y1="511.61" x2="601.87" y2="511.61" gradientUnits="userSpaceOnUse"><stop offset="0" stop-color="#211754"/><stop offset="1" stop-color="#7e298b"/></linearGradient><linearGradient id="linear-gradient-2" x1="69.16" y1="513.1" x2="599.75" y2="513.1" xlink:href="#linear-gradient"/><linearGradient id="linear-gradient-3" x1="71.56" y1="514.6" x2="597.63" y2="514.6" xlink:href="#linear-gradient"/><linearGradient id="linear-gradient-4" x1="73.95" y1="516.1" x2="595.53" y2="516.1" xlink:href="#linear-gradient"/><linearGradient id="linear-gradient-5" x1="76.34" y1="517.59" x2="593.42" y2="517.59" xlink:href="#linear-gradient"/><linearGradient id="linear-gradient-6" x1="78.73" y1="519.09" x2="591.33" y2="519.09" xlink:href="#linear-gradient"/><linearGradient id="linear-gradient-7" x1="81.12" y1="520.59" x2="589.24" y2="520.59" xlink:href="#linear-gradient"/><linearGradient id="linear-gradient-8" x1="83.5" y1="522.08" x2="587.16" y2="522.08" xlink:href="#linear-gradient"/><linearGradient id="linear-gradient-9" x1="85.88" y1="523.58" x2="585.09" y2="523.58" xlink:href="#linear-gradient"/><linearGradient id="linear-gradient-10" x1="88.25" y1="525.08" x2="583.03" y2="525.08" xlink:href="#linear-gradient"/><linearGradient id="linear-gradient-11" x1="90.61" y1="526.57" x2="580.98" y2="526.57" xlink:href="#linear-gradient"/><linearGradient id="linear-gradient-12" x1="92.97" y1="528.06" x2="578.93" y2="528.06" xlink:href="#linear-gradient"/><linearGradient id="linear-gradient-13" x1="95.33" y1="529.56" x2="576.9" y2="529.56" xlink:href="#linear-gradient"/><linearGradient id="linear-gradient-14" x1="97.67" y1="531.05" x2="574.88" y2="531.05" xlink:href="#linear-gradient"/><linearGradient id="linear-gradient-15" x1="100" y1="532.54" x2="572.87" y2="532.54" xlink:href="#linear-gradient"/><linearGradient id="linear-gradient-16" x1="102.33" y1="534.04" x2="570.87" y2="534.04" xlink:href="#linear-gradient"/><linearGradient id="linear-gradient-17" x1="104.64" y1="535.53" x2="568.88" y2="535.53" xlink:href="#linear-gradient"/><linearGradient id="linear-gradient-18" x1="106.94" y1="537.02" x2="566.91" y2="537.02" xlink:href="#linear-gradient"/><linearGradient id="linear-gradient-19" x1="109.23" y1="538.5" x2="564.96" y2="538.5" xlink:href="#linear-gradient"/><linearGradient id="linear-gradient-20" x1="111.5" y1="539.99" x2="563.01" y2="539.99" xlink:href="#linear-gradient"/><linearGradient id="linear-gradient-21" x1="113.76" y1="541.48" x2="561.09" y2="541.48" xlink:href="#linear-gradient"/><linearGradient id="linear-gradient-22" x1="116" y1="542.96" x2="559.18" y2="542.96" xlink:href="#linear-gradient"/></defs><title>Untitled-1</title><g class="cls-2"><path class="cls-3" d="M391.34,998.63s-4.75-149.17,77.25-284.16c48.48-79.8,151.6-360.74,130.46-408.73S473.35,258.2,412.9,480.48c-19.66,72.3-58.87,436-58.87,436s61.2-430.82,74.77-512.21c43.65-261.86,53.84-371,9.36-379.23S337.57,114.6,331.5,294.57,310,481.33,346.85,555.38C340,378.43,383.76,236.91,211.7,176.05c-55.15-19.51,21.94,258.45,46.21,331.25S293,622,293,622s5.15,17.27-73.74-105.34C156.75,419.49,87,350.45,73,396.1s-5.21,153.93,36.28,213S234.45,708,252.05,734.37s54,173.23,50.71,211.86c-2.68,31.59-22.61,52.4-22.61,52.4Z"/><path class="cls-4" d="M389.77,998.63s-5-149.34,77-284.32c48.49-79.8,150.54-360.54,130.4-406.25S471.45,267.3,412,490.4c-19.3,72.38-58,426.1-58,426.1s59.58-428.19,73.15-509.58c43.65-261.87,52-371.1,9.68-378.9s-97.92,87.3-104,267.27-20.51,200.79,14,275.94c-7.78-177.06,33.18-324.82-133.73-390C161.09,167.35,235.77,435,259.53,508.34c23.7,72.94,36.13,130.71,36.13,130.71s4,5.54-74.86-117.07C158.27,424.81,88.57,356,75.2,399.43S69.39,549,110.89,608.05s124.8,98.64,142.4,125,54,174.5,50.77,213.13a95.93,95.93,0,0,1-21.82,52.41Z"/><path class="cls-5" d="M388.2,998.63s-5.29-149.5,76.72-284.49c48.48-79.79,149.46-360.33,130.33-403.75s-125.71-34-184.13,189.93C392.18,572.78,354,916.5,354,916.5s58-425.57,71.52-507C469.21,147.68,475.81,38.4,435.57,31S340.32,116,334.25,296s-19.52,214.83,12.67,291.07c-8.7-177.16,29.45-331.18-132.3-400.58-49-8.34,23.29,249,46.54,322.89,23.13,73.08,37.15,146.71,37.15,146.71s2.9-6.19-76-128.79C159.79,430.13,90.13,361.45,77.42,402.75S71,547.88,112.52,607s124.41,98.44,142,124.85,54.11,175.76,50.83,214.39c-2.68,31.59-21,52.42-21,52.42Z"/><path class="cls-6" d="M386.63,998.63S381.07,849,463.08,714c48.48-79.8,148.4-360.13,130.27-401.26S467.64,285.51,410.23,510.25C391.64,582.78,354,916.5,354,916.5s56.34-422.95,69.9-504.34C467.58,150.3,472.4,41,434.27,34s-92.58,82.81-98.65,262.78S317.09,525.59,347,602.93c-9.63-177.26,25.71-337.53-130.88-411.21-45.92-2.76,24,244.34,46.71,318.72C285.34,583.66,301,673.15,301,673.15s1.78-17.92-77.11-140.52C161.31,435.46,91.69,367,79.65,406.08s-7,140.72,34.51,199.81,124,98.25,141.61,124.65,54.17,177,50.89,215.65c-2.69,31.6-20.23,52.44-20.23,52.44Z"/><path class="cls-7" d="M385.06,998.63s-5.83-149.83,76.18-284.81C509.72,634,608.57,353.89,591.46,315S465.73,294.62,409.34,520.17C391.11,592.78,354,916.5,354,916.5s54.72-420.32,68.28-501.72C466,152.92,469,43.54,433,36.91s-89.9,80.57-96,260.55-17.54,242.89,10,321.32C336.43,441.41,369,274.89,217.53,197c-42.84,2.82,24.65,239.63,46.88,314.53,22,73.36,39.18,178.72,39.18,178.72s.66-29.64-78.23-152.25C162.83,440.78,93.25,372.45,81.88,409.4S74.3,545.72,115.79,604.82s123.62,98,141.22,124.45S311.23,907.56,308,946.18c-2.68,31.6-19.42,52.45-19.42,52.45Z"/><path class="cls-8" d="M383.49,998.63s-6.1-150,75.91-285c48.48-79.8,146.27-359.71,130.16-396.28S463.83,303.72,408.45,530.09C390.58,602.78,354,916.5,354,916.5s53.09-417.7,66.66-499.09c43.65-261.87,44.88-371.29,11-377.53s-87.24,78.33-93.31,258.3S321.83,555.1,347,634.63c-11.48-177.47,18.25-350.25-128-432.46C179.23,210.58,244.31,437.1,266,512.53c21.42,73.5,40.19,194.72,40.19,194.72s-.46-41.37-79.35-164C164.35,446.1,94.81,378,84.11,412.73s-8.18,131.91,33.31,191S240.65,701.59,258.25,728s54.28,179.56,51,218.18c-2.68,31.6-18.62,52.46-18.62,52.46Z"/><path class="cls-9" d="M381.92,998.63s-6.36-150.16,75.64-285.14C506,633.69,602.76,354,587.66,319.7S461.92,312.83,407.55,540C390.05,612.78,354,916.5,354,916.5s51.47-415.08,65-496.47c43.65-261.86,43.08-371.34,11.31-377.19s-84.56,76.09-90.63,256.06-15.55,271,7.31,351.58c-12.41-177.58,14.51-356.6-126.61-443.09-36.68,14,26,230.23,47.22,306.19,20.84,73.64,41.21,210.72,41.21,210.72s-1.59-53.1-80.49-175.7c-62.52-97.17-132-165.16-142.06-132.55s-8.77,127.51,32.73,186.61,122.83,97.65,140.43,124.05,54.34,180.83,51.06,219.45c-2.68,31.6-17.83,52.47-17.83,52.47Z"/><path class="cls-10" d="M380.35,998.63s-6.63-150.32,75.38-285.31C504.21,633.53,599.86,354,585.76,322s-125.74-.1-179.1,227.9C389.52,622.79,354,916.5,354,916.5S403.88,504,417.45,422.65C461.1,160.79,458.74,51.26,429.08,45.8s-81.89,73.85-87.95,253.82-14.57,285,6,366.71c-13.34-177.68,10.79-363-125.18-453.71-33.61,19.58,26.67,225.52,47.39,302,20.27,73.78,42.22,226.73,42.22,226.73s-2.71-64.82-81.61-187.43c-62.52-97.17-132-165-141.35-134.54s-9.36,123.1,32.13,182.2S243.13,699,260.74,725.44s54.39,182.08,51.11,220.71c-2.68,31.59-17,52.48-17,52.48Z"/><path class="cls-11" d="M378.78,998.63s-6.9-150.49,75.11-285.47c48.48-79.8,143.06-359.1,130-388.81S458.11,331,405.77,559.86C389,632.79,354,916.5,354,916.5s48.23-409.83,61.8-491.22c43.65-261.87,39.49-371.44,12-376.51s-79.22,71.6-85.29,251.57-13.57,299,4.63,381.84c-14.27-177.78,7.05-369.31-123.76-464.34C192.84,243,250.72,438.66,270.92,515.67c19.71,73.92,43.24,242.73,43.24,242.73s-3.84-76.55-82.73-199.16C168.91,462.07,99.48,394.44,90.79,422.7s-10,118.7,31.53,177.8S244.37,697.76,262,724.16s54.45,183.35,51.17,222c-2.69,31.59-16.23,52.49-16.23,52.49Z"/><path class="cls-12" d="M377.2,998.63S370,848,452.05,713C500.53,633.2,594,354.1,582,326.68s-125.75,13.46-177.08,243.1C388.46,642.79,354,916.5,354,916.5s46.61-407.21,60.18-488.6C457.86,166,451.91,56.41,426.49,51.73s-76.55,69.36-82.61,249.34-12.58,313,3.28,397c-15.19-177.89,3.32-375.67-122.34-475-27.45,30.75,27.88,216.15,47.73,293.65,19,74.1,44.25,258.73,44.25,258.73s-5-88.28-83.85-210.88C170.42,467.39,101,399.94,93,426S82.46,540.33,124,599.42s121.65,97.06,139.26,123.47,54.5,184.61,51.22,223.23c-2.68,31.6-15.43,52.51-15.43,52.51Z"/><path class="cls-13" d="M375.63,998.63s-7.43-150.81,74.58-285.8C498.69,633,591.14,354.15,580.06,329S454.3,349.25,404,579.7c-16.06,73.09-50,336.8-50,336.8s45-404.59,58.56-486C456.24,168.66,448.49,59,425.19,54.69s-73.87,67.12-79.94,247.1-11.59,327.08,1.94,412.09c-16.12-178-.41-382-120.91-485.59-24.37,36.33,28.55,211.45,47.9,289.47C292.59,592,319.44,792.5,319.44,792.5s-6.08-100-85-222.61C171.94,472.72,102.6,405.44,95.24,429.35s-11.14,109.9,30.35,169S246.85,695.2,264.46,721.61,319,907.49,315.74,946.11c-2.68,31.6-14.63,52.52-14.63,52.52Z"/><path class="cls-14" d="M374.06,998.63s-7.7-151,74.31-286c48.48-79.8,139.86-358.48,129.8-381.33s-125.77,27-175.07,258.28C387.4,662.79,354,916.5,354,916.5s43.37-402,56.94-483.36C454.62,171.28,445.08,61.56,423.9,57.66s-71.21,64.88-77.27,244.85-10.6,341.11.6,427.22c-17.05-178.1-4.15-388.38-119.49-496.21C206.45,275.43,257,440.26,275.8,518.81c17.85,74.38,46.29,290.74,46.29,290.74S314.88,697.82,236,575.21C173.46,478,104.16,410.94,97.47,432.68S85.73,538.17,127.22,597.27,248.09,693.93,265.7,720.33,320.32,907.48,317,946.1c-2.68,31.6-13.83,52.53-13.83,52.53Z"/><path class="cls-15" d="M372.49,998.63s-8-151.14,74-286.12c48.48-79.8,138.8-358.28,129.74-378.85s-125.78,33.8-174.06,265.88c-15.34,73.25-48.18,317-48.18,317s41.75-399.34,55.31-480.73C453,173.9,441.66,64.13,422.6,60.62S354.07,123.26,348,303.23s-9.6,355.15-.74,442.35c-18-178.2-7.87-394.74-118.06-506.84-18.22,47.5,30.06,202,48.23,281.12,17.42,74.48,47.3,306.74,47.3,306.74s-8.33-123.46-87.22-246.07C175,483.36,105.72,416.44,99.7,436S87.36,537.09,128.86,596.19s120.47,96.46,138.08,122.87,54.68,188.41,51.4,227c-2.68,31.6-13,52.54-13,52.54Z"/><path class="cls-16" d="M370.92,998.63s-8.23-151.31,73.78-286.29C493.18,632.54,582.42,354.27,574.37,336s-125.78,40.57-173,273.48c-15,73.32-47.29,307-47.29,307s40.13-396.72,53.69-478.11C451.37,176.53,438.25,66.7,421.31,63.58S355.44,124,349.38,304s-8.62,369.18-2.08,457.48C328.39,583.13,335.69,360.34,230.66,244c-15.14,53.09,30.73,197.3,48.4,276.94,16.85,74.63,48.31,322.75,48.31,322.75S317.92,708.46,239,585.86C176.5,488.69,107.27,421.93,101.92,439.33S89,536,130.49,595.11s120.08,96.27,137.69,122.67,54.74,189.68,51.46,228.3c-2.69,31.59-12.24,52.55-12.24,52.55Z"/><path class="cls-17" d="M369.35,998.63s-8.5-151.47,73.51-286.45c48.48-79.8,136.66-357.86,129.61-373.86s-125.79,47.35-172,281.07C385.81,692.79,354,916.5,354,916.5S392.54,522.4,406.1,441C449.75,179.15,434.83,69.28,420,66.55s-63.19,58.15-69.26,238.13-7.62,383.2-3.42,472.6C327.5,598.87,332,369.83,232.11,249.19,220.05,307.86,263.52,441.78,280.69,522,297,596.71,330,860.7,330,860.7s-10.57-146.91-89.46-269.52C178,494,108.83,427.43,104.15,442.65s-13.52,92.28,28,151.38,119.69,96.07,137.3,122.48,54.79,190.93,51.51,229.56c-2.68,31.59-11.43,52.56-11.43,52.56Z"/><path class="cls-18" d="M367.78,998.63S359,847,441,712c48.48-79.79,135.59-357.65,129.55-371.36s-125.79,54.13-171,288.66C385.28,702.79,354,916.5,354,916.5S390.91,525,404.48,443.63c43.65-261.86,26.94-371.78,14.23-374.12s-60.52,55.91-66.58,235.89-6.63,397.24-4.77,487.73c-20.75-178.51-19.07-413.8-113.79-538.72-9,64.26,32.09,187.89,48.74,268.59,15.71,74.9,50.35,354.75,50.35,354.75S321,719.11,242.06,596.5C179.54,499.33,110.39,432.93,106.38,446s-14.12,87.89,27.38,147,119.29,95.87,136.9,122.28,54.85,192.2,51.57,230.83c-2.68,31.59-10.64,52.57-10.64,52.57Z"/><path class="cls-19" d="M366.21,998.63s-9-151.8,73-286.78C487.66,632.05,573.71,354.4,568.67,343s-125.8,60.91-170,296.26C384.75,712.79,354,916.5,354,916.5s35.26-388.85,48.83-470.24C446.51,184.39,428,74.42,417.42,72.47s-57.85,53.68-63.92,233.65S347.87,717.39,347.4,809C325.71,630.36,324.59,388.82,235,259.64c-5.91,69.84,32.76,183.18,48.91,264.4C299.08,599.09,335.3,894.8,335.3,894.8s-12.82-170.37-91.72-293c-62.52-97.18-131.63-163.4-135-152.53S93.9,532.78,135.39,591.87,254.29,687.55,271.9,714,326.81,907.42,323.53,946c-2.68,31.6-9.84,52.59-9.84,52.59Z"/><path class="cls-20" d="M364.64,998.63s-9.3-152,72.7-286.94c48.48-79.8,133.46-357.25,129.43-366.39S441,413,397.75,649.16C384.22,722.79,354,916.5,354,916.5s33.64-386.23,47.21-467.62C444.89,187,424.59,77,416.12,75.44s-55.18,51.43-61.24,231.4-4.65,425.31-7.45,518c-22.61-178.72-26.53-426.52-110.94-560-2.83,75.42,33.44,178.48,49.08,260.23,14.57,75.19,52.37,386.76,52.37,386.76S324,729.75,245.1,607.15C182.58,510,113.51,443.93,110.83,452.62S95.53,531.7,137,590.8s118.51,95.47,136.12,121.88,55,194.73,51.69,233.35c-2.68,31.6-9,52.6-9,52.6Z"/><path class="cls-21" d="M363.07,998.63S353.5,846.5,435.5,711.52c48.48-79.8,132.4-357,129.38-363.89s-125.82,74.46-168,311.45C383.69,732.79,354,916.5,354,916.5s32-383.61,45.59-465c43.65-261.86,21.56-371.93,15.2-373.1s-52.5,49.19-58.57,229.16-3.65,439.34-8.78,533.12C323.93,661.86,317.2,407.81,238,270.09c.25,81,34.11,173.77,49.24,256.05,14,75.32,53.39,402.76,53.39,402.76s-15.07-193.82-94-316.43C184.1,515.3,115.07,449.43,113.06,456s-15.9,74.67,25.6,133.77S256.77,685,274.38,711.4s55,196,51.75,234.62c-2.69,31.6-8.25,52.61-8.25,52.61Z"/><path class="cls-22" d="M361.5,998.63s-9.84-152.29,72.17-287.27C482.15,631.56,565,354.53,563,350S437.16,431.2,396,669C383.16,742.79,354,916.5,354,916.5s30.4-381,44-462.38c43.65-261.86,19.76-372,15.53-372.76s-49.84,47-55.9,226.92S355,761.65,347.5,856.53C323,677.6,313.5,417.3,239.4,275.31c3.33,86.59,34.8,169.07,49.42,251.88,13.43,75.46,54.41,418.75,54.41,418.75S327,740.4,248.14,617.79c-62.53-97.17-131.52-162.86-132.85-158.52s-16.49,70.27,25,129.37S258,683.72,275.62,710.13,330.7,907.39,327.42,946c-2.68,31.6-7.44,52.62-7.44,52.62Z"/><path class="cls-23" d="M359.93,998.63s-10.11-152.45,71.9-287.44c48.48-79.79,130.26-356.62,129.25-358.91s-125.83,88-166,326.64C382.63,752.79,354,916.5,354,916.5s28.78-378.36,42.35-459.75c43.65-261.87,18-372,15.85-372.42S365.07,129,359,309s-1.67,467.4-11.47,563.37c-25.39-179-37.73-445.58-106.67-591.85,6.41,92.18,35.47,164.37,49.59,247.7C303.31,603.84,345.87,963,345.87,963s-17.32-217.27-96.21-339.87C187.13,526,118.18,460.43,117.51,462.6s-17.08,65.86,24.41,125,117.33,94.88,134.94,121.29S332,907.37,328.72,946c-2.68,31.59-6.65,52.63-6.65,52.63Z"/><path class="cls-24" d="M358.36,998.63S348,846,430,711c48.48-79.8,129.19-356.42,129.19-356.42s-125.83,94.8-165,334.23C382.1,762.79,354,916.5,354,916.5s27.16-375.74,40.73-457.13c43.65-261.86,16.17-372.08,16.17-372.08s-44.48,42.47-50.55,222.44-.68,481.43-12.81,578.5C321.25,709.09,306.1,436.29,242.32,285.76c9.48,97.76,36.15,159.66,49.75,243.52C304.37,605,348.51,980,348.51,980s-18.44-229-97.33-351.6c-62.53-97.17-131.44-162.52-131.44-162.52s-17.68,61.47,23.82,120.56S260.49,681.17,278.1,707.57,333.3,907.36,330,946c-2.68,31.59-5.85,52.64-5.85,52.64Z"/></g><g class="cls-25"><path class="cls-26" d="M210.11,557.79c-7.6-4-25.09-5.45-43.2-13.5-16.69-7.43-74.42-20.81-83-23.08s-8-25.81,1.72-28,53.57-2.75,89.6,13.25c18.31,8.14,44.37,28.32,48.6,34.37S217.71,561.78,210.11,557.79Z"/><path class="cls-27" d="M209.34,556.84c-7.13-3.76-24.21-5.64-42.32-13.7-16.69-7.43-72.46-20.51-82.45-22.55-8-2.13-7.51-24.32,1.61-26.35,11.1-2.12,53.89-2.12,88.72,13.35,18.31,8.14,43.43,27.6,47.4,33.27S216.47,560.58,209.34,556.84Z"/><path class="cls-28" d="M208.57,555.88c-6.66-3.51-23.32-5.83-41.43-13.89-16.69-7.43-70.52-20.21-81.93-22-7.49-2-7-22.82,1.49-24.72,12.49-2.07,54.21-1.49,87.84,13.45,18.32,8.14,42.49,26.87,46.2,32.18S215.22,559.38,208.57,555.88Z"/><path class="cls-29" d="M207.8,554.93c-6.2-3.26-22.44-6-40.55-14.09-16.69-7.43-68.56-19.9-81.41-21.5-7-1.84-6.52-21.32,1.38-23.08,13.87-2,54.53-.86,87,13.55,18.31,8.14,41.54,26.15,45,31.08S214,558.18,207.8,554.93Z"/><path class="cls-30" d="M207,554c-5.73-3-21.55-6.23-39.66-14.29-16.69-7.42-66.61-19.6-80.89-21-6.42-1.7-6-19.82,1.27-21.45,15.25-2,54.85-.23,86.08,13.65,18.31,8.14,40.6,25.43,43.8,30S212.73,557,207,554Z"/><path class="cls-31" d="M206.25,553c-5.25-2.78-20.66-6.43-38.77-14.48-16.69-7.43-64.66-19.31-80.37-20.45-5.88-1.56-5.53-18.33,1.16-19.82,16.63-1.92,55.17.4,85.21,13.75,18.31,8.14,39.65,24.71,42.59,28.89S211.48,555.77,206.25,553Z"/><path class="cls-32" d="M205.48,552.07c-4.79-2.53-19.77-6.61-37.88-14.67-16.69-7.43-62.71-19-79.85-19.92-5.35-1.42-5-16.83,1-18.19,18-1.87,55.49,1,84.33,13.85,18.31,8.15,38.71,24,41.39,27.8S210.23,554.57,205.48,552.07Z"/><path class="cls-33" d="M204.71,551.12c-4.32-2.29-18.89-6.81-37-14.87C151,528.82,107,517.55,88.38,516.86c-4.81-1.28-4.53-15.34.93-16.56,19.4-1.82,55.81,1.66,83.46,13.95,18.31,8.15,37.75,23.26,40.18,26.7S209,553.37,204.71,551.12Z"/><path class="cls-34" d="M203.94,550.17c-3.85-2-18-7-36.11-15.07C151.14,527.67,109,516.7,89,516.23c-4.28-1.13-4-13.83.82-14.92,20.78-1.76,56.12,2.29,82.57,14.05,18.31,8.15,36.81,22.54,39,25.61S207.74,552.17,203.94,550.17Z"/><path class="cls-35" d="M203.17,549.22c-3.39-1.8-17.12-7.21-35.23-15.27-16.69-7.42-56.85-18.1-78.29-18.34-3.74-1-3.54-12.34.71-13.29,22.16-1.71,56.44,2.92,81.69,14.15,18.31,8.15,35.87,21.82,37.78,24.51S206.49,551,203.17,549.22Z"/><path class="cls-36" d="M202.4,548.26c-2.92-1.55-16.23-7.4-34.34-15.45C151.37,525.38,113.15,515,90.29,515c-3.21-.85-3.05-10.84.59-11.66,23.55-1.66,56.76,3.55,80.82,14.25,18.31,8.15,34.92,21.1,36.57,23.42S205.25,549.76,202.4,548.26Z"/><path class="cls-37" d="M201.62,547.31c-2.44-1.31-15.34-7.59-33.45-15.65-16.69-7.43-52.95-17.5-77.25-17.29-2.67-.71-2.55-9.35.48-10,24.94-1.61,57.08,4.18,79.94,14.35,18.31,8.15,34,20.37,35.38,22.32S204,548.56,201.62,547.31Z"/><path class="cls-38" d="M200.85,546.36c-2-1.06-14.45-7.79-32.56-15.85-16.69-7.43-51-17.2-76.73-16.77-2.14-.56-2.06-7.84.37-8.39,26.31-1.56,57.39,4.81,79.06,14.45,18.3,8.15,33,19.65,34.17,21.23S202.75,547.36,200.85,546.36Z"/><path class="cls-39" d="M200.08,545.41a344.92,344.92,0,0,0-31.67-16c-16.7-7.42-49.06-16.9-76.22-16.24-1.6-.42-1.56-6.35.26-6.76,27.7-1.51,57.71,5.44,78.18,14.55,18.31,8.15,32.09,18.93,33,20.13S201.5,546.16,200.08,545.41Z"/><path class="cls-40" d="M199.31,544.45a253.75,253.75,0,0,0-30.79-16.23c-16.69-7.43-47.1-16.61-75.69-15.72-1.07-.28-1.07-4.86.14-5.13,29.08-1.45,58,6.07,77.31,14.65,18.3,8.15,31.14,18.21,31.76,19S200.26,545,199.31,544.45Z"/><path class="cls-41" d="M198.54,543.5a192.75,192.75,0,0,0-29.9-16.43c-16.7-7.43-45.15-16.31-75.18-15.19-.53-.14-.57-3.36,0-3.5,30.46-1.4,58.34,6.7,76.42,14.75,18.31,8.16,30.19,17.49,30.56,17.94S199,543.75,198.54,543.5Z"/><path class="cls-42" d="M197.76,542.55c-.1-.09-10.9-8.57-29-16.63-16.69-7.43-43.2-16-74.65-14.67L94,509.39c31.84-1.35,58.66,7.33,75.55,14.85,18.3,8.16,29.24,16.76,29.35,16.85Z"/></g><g class="cls-25"><path class="cls-26" d="M321.35,379.86c-6.09-2.84-20.94-2.26-35.6-7.68-13.51-5-61.57-11-68.66-12.12s-4.06-22.79,4.52-25.84,46.26-8.35,75.42,2.4c14.82,5.46,35,21.13,38,26.21S327.43,382.69,321.35,379.86Z"/><path class="cls-27" d="M320.79,379.07c-5.71-2.67-20.16-2.54-34.81-7.95-13.52-5-59.94-10.91-68.28-11.7-6.65-1.08-3.8-21.47,4.25-24.33,9.75-3.16,46.46-7.81,74.65,2.59,14.82,5.46,34.25,20.56,37,25.34S326.49,381.73,320.79,379.07Z"/><path class="cls-28" d="M320.23,378.28c-5.34-2.49-19.37-2.81-34-8.23-13.51-5-58.29-10.85-67.89-11.27-6.2-1-3.53-20.15,4-22.82,10.94-3.26,46.67-7.27,73.9,2.77,14.82,5.47,33.52,20,36.12,24.47S325.55,380.76,320.23,378.28Z"/><path class="cls-29" d="M319.67,377.49c-5-2.32-18.59-3.09-33.25-8.5-13.51-5-56.65-10.79-67.5-10.85-5.76-.93-3.27-18.84,3.7-21.31,12.12-3.36,46.87-6.72,73.13,3,14.82,5.47,32.79,19.45,35.22,23.59S324.61,379.79,319.67,377.49Z"/><path class="cls-30" d="M319.11,376.7c-4.58-2.14-17.81-3.36-32.46-8.78-13.52-5-55-10.72-67.11-10.42-5.32-.86-3-17.52,3.42-19.8,13.3-3.47,47.08-6.18,72.36,3.14,14.82,5.47,32.06,18.9,34.31,22.73S323.68,378.83,319.11,376.7Z"/><path class="cls-31" d="M318.55,375.91c-4.21-2-17-3.64-31.68-9.05-13.51-5-53.37-10.66-66.72-10-4.87-.79-2.75-16.2,3.15-18.29,14.48-3.57,47.28-5.64,71.6,3.33,14.82,5.47,31.32,18.33,33.39,21.85S322.74,377.86,318.55,375.91Z"/><path class="cls-32" d="M318,375.12c-3.84-1.8-16.25-3.91-30.91-9.33-13.51-5-51.72-10.59-66.33-9.57-4.43-.72-2.48-14.88,2.88-16.78,15.66-3.68,47.48-5.1,70.83,3.52,14.82,5.47,30.59,17.77,32.48,21S321.8,376.89,318,375.12Z"/><path class="cls-33" d="M317.44,374.33c-3.46-1.62-15.47-4.19-30.12-9.6-13.51-5-50.09-10.54-65.95-9.15-4-.64-2.22-13.56,2.61-15.28,16.84-3.77,47.68-4.55,70.07,3.71,14.82,5.48,29.85,17.22,31.56,20.11S320.86,375.93,317.44,374.33Z"/><path class="cls-34" d="M316.88,373.54c-3.09-1.45-14.68-4.46-29.34-9.88-13.51-5-48.44-10.47-65.55-8.72-3.55-.57-2-12.24,2.32-13.77,18-3.87,47.9-4,69.31,3.9,14.82,5.47,29.13,16.65,30.65,19.23S319.92,375,316.88,373.54Z"/><path class="cls-35" d="M316.32,372.75c-2.71-1.27-13.9-4.74-28.55-10.15-13.52-5-46.81-10.41-65.17-8.3-3.1-.5-1.7-10.92,2.05-12.26,19.2-4,48.1-3.46,68.54,4.09,14.82,5.47,28.4,16.09,29.74,18.35S319,374,316.32,372.75Z"/><path class="cls-36" d="M315.76,372c-2.33-1.11-13.11-5-27.77-10.44-13.51-5-45.16-10.34-64.78-7.87-2.66-.43-1.44-9.6,1.78-10.75,20.38-4.08,48.3-2.92,67.78,4.27,14.82,5.48,27.66,15.54,28.82,17.49S318,373,315.76,372Z"/><path class="cls-37" d="M315.2,371.18c-2-.94-12.33-5.3-27-10.71-13.51-5-43.52-10.28-64.39-7.45-2.21-.35-1.17-8.28,1.51-9.24,21.56-4.19,48.5-2.38,67,4.46,14.82,5.47,26.93,15,27.92,16.61S317.1,372.06,315.2,371.18Z"/><path class="cls-38" d="M314.64,370.39c-1.58-.76-11.55-5.57-26.2-11-13.52-5-41.88-10.22-64-7-1.78-.28-.92-7,1.23-7.73,22.74-4.29,48.71-1.84,66.25,4.64,14.81,5.48,26.19,14.42,27,15.74S316.17,371.1,314.64,370.39Z"/><path class="cls-39" d="M314.09,369.6a211.92,211.92,0,0,0-25.43-11.26c-13.51-5-40.24-10.16-63.61-6.59-1.33-.22-.65-5.66,1-6.23,23.92-4.4,48.91-1.29,65.48,4.83,14.82,5.48,25.46,13.86,26.09,14.87S315.23,370.13,314.09,369.6Z"/><path class="cls-40" d="M313.53,368.81a156.71,156.71,0,0,0-24.65-11.54c-13.51-5-38.59-10.09-63.22-6.16-.88-.15-.39-4.34.68-4.72,25.11-4.5,49.12-.75,64.72,5,14.82,5.48,24.74,13.3,25.18,14S314.29,369.16,313.53,368.81Z"/><path class="cls-41" d="M313,368a117.85,117.85,0,0,0-23.86-11.81,127.68,127.68,0,0,0-62.84-5.74c-.44-.08-.12-3,.41-3.21,26.29-4.6,49.32-.21,64,5.2,14.81,5.48,24,12.74,24.26,13.12S313.35,368.2,313,368Z"/><path class="cls-42" d="M312.41,367.23c-.08-.07-8.42-6.67-23.08-12.09a120.94,120.94,0,0,0-62.44-5.31l.13-1.7a122.19,122.19,0,0,1,63.19,5.39C305,359,313.48,365.7,313.56,365.77Z"/></g><g class="cls-25"><path class="cls-26" d="M326.2,430.74c-5.18-.54-16.82,5-29.09,5-11.31,0-50,10.72-55.76,12.06s-6.18-19.37.19-25,35.4-23.15,59.81-23.17c12.41,0,30.37,7.46,33.37,11.09S331.37,431.28,326.2,430.74Z"/><path class="cls-27" d="M325.65,430.21c-4.85-.5-16.23,4.47-28.5,4.47-11.31,0-48.71,10.22-55.4,12.31-5.38,1.25-5.8-18.26.17-23.57,7.28-6.14,35.63-22.72,59.23-22.74,12.41,0,29.72,7.2,32.54,10.6S330.5,430.71,325.65,430.21Z"/><path class="cls-28" d="M325.11,429.68c-4.54-.47-15.65,3.95-27.92,3.95-11.32,0-47.41,9.73-55,12.57-5,1.17-5.42-17.15.15-22.1,8.2-6.64,35.87-22.3,58.66-22.31,12.4,0,29.06,6.93,31.7,10.11S329.63,430.15,325.11,429.68Z"/><path class="cls-29" d="M324.56,429.15c-4.21-.44-15.07,3.44-27.34,3.44-11.31,0-46.1,9.23-54.67,12.82-4.66,1.09-5-16,.13-20.63,9.12-7.13,36.1-21.87,58.08-21.89,12.41,0,28.41,6.67,30.87,9.63S328.77,429.58,324.56,429.15Z"/><path class="cls-30" d="M324,428.62c-3.9-.41-14.49,2.93-26.76,2.93-11.31,0-44.8,8.73-54.31,13.08-4.3,1-4.66-14.93.11-19.17,10-7.63,36.33-21.45,57.5-21.47,12.41,0,27.76,6.42,30,9.15S327.9,429,324,428.62Z"/><path class="cls-31" d="M323.48,428.09c-3.58-.38-13.91,2.41-26.18,2.41-11.32,0-43.5,8.25-54,13.34-3.95.92-4.29-13.82.09-17.71,11-8.11,36.56-21,56.92-21,12.41,0,27.11,6.15,29.2,8.65S327,428.46,323.48,428.09Z"/><path class="cls-32" d="M322.93,427.56c-3.26-.35-13.32,1.9-25.6,1.9-11.31,0-42.19,7.75-53.58,13.59-3.59.84-3.91-12.7.07-16.24,11.88-8.6,36.8-20.6,56.34-20.61,12.41,0,26.46,5.89,28.37,8.17S326.16,427.89,322.93,427.56Z"/><path class="cls-33" d="M322.39,427c-2.94-.32-12.75,1.39-25,1.39-11.31,0-40.89,7.25-53.22,13.84-3.23.76-3.53-11.59,0-14.77,12.79-9.1,37-20.17,55.77-20.18,12.4,0,25.8,5.62,27.53,7.68S325.3,427.33,322.39,427Z"/><path class="cls-34" d="M321.84,426.5c-2.62-.29-12.16.87-24.43.87-11.32,0-39.59,6.76-52.86,14.1-2.87.67-3.15-10.48,0-13.3,13.71-9.59,37.26-19.75,55.19-19.76,12.41,0,25.16,5.36,26.7,7.19S324.43,426.77,321.84,426.5Z"/><path class="cls-35" d="M321.3,426c-2.3-.25-11.58.36-23.86.36-11.31,0-38.28,6.26-52.49,14.36-2.51.58-2.77-9.37,0-11.85,14.63-10.08,37.49-19.32,54.61-19.33,12.41,0,24.51,5.1,25.87,6.71S323.56,426.2,321.3,426Z"/><path class="cls-36" d="M320.76,425.44c-2-.22-11-.16-23.28-.16-11.31,0-37,5.77-52.13,14.62-2.15.5-2.39-8.26,0-10.38,15.54-10.57,37.72-18.9,54-18.9,12.41,0,23.86,4.83,25,6.22S322.7,425.64,320.76,425.44Z"/><path class="cls-37" d="M320.21,424.91c-1.66-.19-10.42-.67-22.69-.67-11.31,0-35.68,5.27-51.77,14.87-1.8.42-2-7.14,0-8.91,16.46-11.06,38-18.47,53.45-18.48,12.4,0,23.2,4.58,24.19,5.73S321.83,425.08,320.21,424.91Z"/><path class="cls-38" d="M319.67,424.38a190.48,190.48,0,0,0-22.11-1.18c-11.32,0-34.38,4.78-51.41,15.12-1.44.34-1.63-6,0-7.45,17.38-11.55,38.18-18,52.87-18,12.4,0,22.55,4.31,23.36,5.24S321,424.51,319.67,424.38Z"/><path class="cls-39" d="M319.12,423.85a130.23,130.23,0,0,0-21.53-1.7c-11.31,0-33.07,4.29-51,15.39-1.08.25-1.26-4.93-.06-6,18.29-12,38.41-17.62,52.29-17.62,12.41,0,21.9,4.05,22.53,4.76S320.09,424,319.12,423.85Z"/><path class="cls-40" d="M318.58,423.32a94.23,94.23,0,0,0-20.95-2.21c-11.31,0-31.77,3.79-50.68,15.64-.72.17-.88-3.81-.08-4.52C266.08,419.7,285.52,415,298.58,415c12.41,0,21.25,3.78,21.69,4.26S319.23,423.38,318.58,423.32Z"/><path class="cls-41" d="M318,422.79a70.16,70.16,0,0,0-20.37-2.73c-11.32,0-30.47,3.3-50.32,15.9-.36.08-.5-2.7-.1-3,20.13-13,38.88-16.77,51.13-16.77,12.41,0,20.6,3.52,20.86,3.78S318.36,422.82,318,422.79Z"/><path class="cls-42" d="M317.49,422.26c-.07,0-7.51-3.24-19.79-3.24-11.31,0-29.16,2.8-49.95,16.15l-.12-1.59c21.05-13.51,39.11-16.34,50.56-16.34,12.4,0,19.95,3.26,20,3.3Z"/></g><g class="cls-25"><path class="cls-26" d="M426.73,229.39c-5,1.33-14,10.6-25.46,14.93-10.58,4-43,27.68-47.91,31s-12.62-15.94-8.66-23.48,24.95-34.16,47.78-42.8c11.61-4.39,31-3.73,35.14-1.4S431.75,228.07,426.73,229.39Z"/><path class="cls-27" d="M426,229.09c-4.72,1.24-13.61,9.91-25.09,14.24-10.59,4-42,26.76-47.48,31.07-4.6,3.08-11.88-15-8.17-22.1,4.65-8.33,25.32-33.84,47.4-42.19,11.6-4.39,30.34-3.76,34.18-1.57S430.74,227.85,426,229.09Z"/><path class="cls-28" d="M425.33,228.78c-4.41,1.16-13.24,9.23-24.73,13.56-10.58,4-40.92,25.83-47.05,31.18-4.29,2.87-11.13-14.13-7.66-20.73,5.33-9.1,25.68-33.52,47-41.58,11.61-4.39,29.64-3.77,33.23-1.73S429.73,227.62,425.33,228.78Z"/><path class="cls-29" d="M424.64,228.48c-4.1,1.07-12.89,8.54-24.37,12.87-10.58,4-39.88,24.91-46.62,31.3-4,2.66-10.38-13.23-7.17-19.36,6-9.89,26.06-33.2,46.61-41,11.61-4.38,28.94-3.78,32.29-1.88S428.72,227.4,424.64,228.48Z"/><path class="cls-30" d="M423.94,228.18c-3.79,1-12.52,7.85-24,12.18-10.59,4-38.84,24-46.2,31.41-3.67,2.46-9.63-12.32-6.66-18,6.7-10.67,26.42-32.89,46.22-40.37,11.61-4.39,28.24-3.8,31.33-2S427.71,227.18,423.94,228.18Z"/><path class="cls-31" d="M423.25,227.87c-3.49.91-12.17,7.17-23.65,11.5-10.58,4-37.78,23.07-45.76,31.52-3.37,2.25-8.89-11.41-6.17-16.6,7.39-11.46,26.79-32.57,45.83-39.77,11.61-4.39,27.54-3.82,30.38-2.21S426.7,227,423.25,227.87Z"/><path class="cls-32" d="M422.55,227.57c-3.17.82-11.8,6.48-23.28,10.81-10.59,4-36.74,22.14-45.34,31.63-3.06,2.05-8.14-10.51-5.66-15.22,8.07-12.24,27.15-32.26,45.44-39.17,11.61-4.38,26.83-3.83,29.42-2.37S425.69,226.74,422.55,227.57Z"/><path class="cls-33" d="M421.85,227.26c-2.86.75-11.43,5.8-22.91,10.13-10.59,4-35.7,21.22-44.91,31.74-2.76,1.85-7.39-9.6-5.17-13.84,8.76-13,27.53-31.94,45.05-38.56,11.61-4.39,26.14-3.85,28.48-2.54S424.68,226.52,421.85,227.26Z"/><path class="cls-34" d="M421.16,227c-2.56.66-11.08,5.11-22.56,9.44-10.58,4-34.65,20.3-44.47,31.85-2.46,1.64-6.65-8.69-4.67-12.46,9.44-13.81,27.89-31.63,44.66-38,11.61-4.38,25.43-3.87,27.52-2.7S423.67,226.3,421.16,227Z"/><path class="cls-35" d="M420.46,226.66c-2.24.57-10.71,4.42-22.19,8.75-10.59,4-33.61,19.38-44,32-2.14,1.43-5.9-7.79-4.17-11.09,10.13-14.59,28.26-31.31,44.27-37.36,11.61-4.38,24.73-3.88,26.57-2.86S422.66,226.08,420.46,226.66Z"/><path class="cls-36" d="M419.77,226.35c-1.94.49-10.35,3.74-21.84,8.07-10.58,4-32.56,18.45-43.61,32.08-1.84,1.23-5.16-6.88-3.67-9.71,10.81-15.38,28.62-31,43.88-36.76,11.61-4.38,24-3.89,25.61-3S421.65,225.85,419.77,226.35Z"/><path class="cls-37" d="M419.07,226.05c-1.63.41-10,3-21.47,7.38-10.58,4-31.52,17.53-43.19,32.19-1.53,1-4.4-6-3.17-8.33,11.5-16.16,29-30.68,43.49-36.15,11.61-4.38,23.33-3.91,24.66-3.18S420.64,225.63,419.07,226.05Z"/><path class="cls-38" d="M418.37,225.74a192.24,192.24,0,0,0-21.1,6.7c-10.59,4-30.48,16.61-42.76,32.3-1.23.82-3.66-5.07-2.67-6.95,12.18-16.94,29.36-30.37,43.1-35.55,11.61-4.38,22.62-3.93,23.71-3.34S419.63,225.41,418.37,225.74Z"/><path class="cls-39" d="M417.68,225.44a130.28,130.28,0,0,0-20.75,6c-10.58,4-29.43,15.69-42.33,32.41-.92.62-2.91-4.16-2.16-5.57,12.86-17.73,29.72-30.05,42.7-35,11.61-4.37,21.92-3.94,22.76-3.5S418.62,225.19,417.68,225.44Z"/><path class="cls-40" d="M417,225.13a95.32,95.32,0,0,0-20.38,5.33c-10.59,4-28.39,14.76-41.9,32.53-.61.41-2.16-3.26-1.67-4.2,13.55-18.51,30.09-29.74,42.32-34.34,11.61-4.38,21.22-4,21.8-3.67S417.61,225,417,225.13Z"/><path class="cls-41" d="M416.29,224.83a70.62,70.62,0,0,0-20,4.64c-10.59,4-27.35,13.84-41.47,32.64-.31.2-1.42-2.35-1.17-2.82,14.24-19.3,30.45-29.42,41.92-33.74s20.52-4,20.85-3.83S416.6,224.75,416.29,224.83Z"/><path class="cls-42" d="M415.59,224.53c-.08,0-8.18-.38-19.66,3.95-10.58,4-26.3,12.92-41,32.75l-.67-1.45c14.93-20.07,30.83-29.09,41.54-33.13,11.61-4.37,19.81-4,19.89-4Z"/></g><g class="cls-25"><path class="cls-26" d="M343.26,440.32c5-1.45,13.72-10.93,25.09-15.53,10.49-4.24,42.35-28.69,47.17-32.08s13,15.64,9.22,23.27S400.6,450.72,378,459.89c-11.5,4.66-31,4.47-35.1,2.23S338.27,441.76,343.26,440.32Z"/><path class="cls-27" d="M344,440.6c4.69-1.35,13.38-10.23,24.75-14.83C379.2,421.53,410,398,415.45,393.59c4.52-3.18,12.23,14.75,8.68,21.91-4.45,8.43-24.51,34.42-46.38,43.29-11.5,4.66-30.25,4.47-34.14,2.37S339.28,442,344,440.6Z"/><path class="cls-28" d="M344.67,440.89c4.38-1.26,13-9.53,24.4-14.14,10.49-4.24,40.3-26.79,46.3-32.28,4.22-3,11.46,13.86,8.15,20.54-5.11,9.23-24.88,34.12-46,42.68-11.5,4.66-29.55,4.47-33.19,2.51S340.3,442.15,344.67,440.89Z"/><path class="cls-29" d="M345.37,441.18c4.07-1.17,12.68-8.84,24.06-13.44,10.48-4.25,39.27-25.85,45.87-32.39,3.92-2.76,10.69,13,7.62,19.18-5.78,10-25.26,33.81-45.63,42.07-11.5,4.66-28.85,4.46-32.23,2.65S341.31,442.35,345.37,441.18Z"/><path class="cls-30" d="M346.07,441.47c3.77-1.08,12.34-8.15,23.71-12.75,10.49-4.24,38.26-24.9,45.44-32.49,3.62-2.55,9.93,12.09,7.09,17.81-6.45,10.83-25.64,33.51-45.25,41.46-11.5,4.66-28.14,4.46-31.28,2.79S342.33,442.55,346.07,441.47Z"/><path class="cls-31" d="M346.78,441.75c3.46-1,12-7.45,23.36-12.05,10.49-4.24,37.23-23.95,45-32.59,3.31-2.33,9.15,11.2,6.55,16.45-7.11,11.62-26,33.19-44.87,40.84-11.51,4.66-27.44,4.47-30.32,2.93S343.34,442.75,346.78,441.75Z"/><path class="cls-32" d="M347.48,442c3.15-.9,11.64-6.76,23-11.36,10.49-4.24,36.21-23,44.57-32.69,3-2.12,8.39,10.31,6,15.08-7.78,12.43-26.39,32.89-44.51,40.23-11.5,4.66-26.73,4.47-29.36,3.07S344.36,442.94,347.48,442Z"/><path class="cls-33" d="M348.18,442.33c2.85-.81,11.3-6.07,22.67-10.67C381.34,427.42,406,409.6,415,398.87c2.71-1.91,7.62,9.42,5.49,13.72-8.45,13.22-26.76,32.58-44.13,39.61-11.5,4.66-26,4.47-28.4,3.21S345.37,443.14,348.18,442.33Z"/><path class="cls-34" d="M348.89,442.62c2.53-.72,10.95-5.37,22.32-10,10.49-4.24,34.17-21.11,43.71-32.89,2.41-1.7,6.85,8.53,5,12.35-9.11,14-27.13,32.28-43.75,39-11.5,4.65-25.33,4.46-27.44,3.34S346.39,443.34,348.89,442.62Z"/><path class="cls-35" d="M349.59,442.9c2.23-.63,10.6-4.67,22-9.27,10.49-4.25,33.14-20.17,43.28-33,2.11-1.49,6.08,7.65,4.43,11-9.78,14.82-27.51,32-43.38,38.39-11.5,4.65-24.63,4.46-26.49,3.48S347.4,443.54,349.59,442.9Z"/><path class="cls-36" d="M350.29,443.19c1.93-.54,10.26-4,21.64-8.58,10.48-4.24,32.12-19.22,42.84-33.1,1.81-1.27,5.32,6.76,3.9,9.62-10.45,15.63-27.88,31.66-43,37.78-11.5,4.65-23.93,4.46-25.53,3.62S348.42,443.73,350.29,443.19Z"/><path class="cls-37" d="M351,443.48c1.62-.45,9.92-3.29,21.29-7.89,10.49-4.24,31.1-18.27,42.42-33.2,1.51-1.06,4.54,5.87,3.36,8.25C407,427.07,389.81,442,375.44,447.81c-11.5,4.65-23.23,4.46-24.58,3.76S349.43,443.93,351,443.48Z"/><path class="cls-38" d="M351.7,443.77a192.16,192.16,0,0,0,20.94-7.2c10.49-4.24,30.08-17.32,42-33.3,1.21-.85,3.78,5,2.84,6.89-11.78,17.23-28.64,31-42.25,36.56-11.5,4.65-22.52,4.46-23.62,3.9S350.45,444.13,351.7,443.77Z"/><path class="cls-39" d="M352.4,444.05a130.25,130.25,0,0,0,20.6-6.5c10.48-4.24,29.05-16.37,41.55-33.4.9-.64,3,4.09,2.3,5.52-12.45,18-29,30.75-41.87,35.95-11.5,4.65-21.82,4.46-22.67,4S351.46,444.33,352.4,444.05Z"/><path class="cls-40" d="M353.1,444.34a94,94,0,0,0,20.25-5.81c10.49-4.24,28-15.42,41.12-33.5.61-.42,2.24,3.21,1.77,4.16-13.11,18.82-29.38,30.43-41.49,35.33-11.5,4.65-21.12,4.46-21.71,4.18S352.48,444.52,353.1,444.34Z"/><path class="cls-41" d="M353.81,444.63a70.63,70.63,0,0,0,19.9-5.11c10.49-4.25,27-14.49,40.69-33.61.3-.21,1.47,2.32,1.23,2.79-13.77,19.63-29.75,30.13-41.11,34.72s-20.42,4.46-20.76,4.32S353.49,444.72,353.81,444.63Z"/><path class="cls-42" d="M354.51,444.92c.08,0,8.18.18,19.56-4.42,10.49-4.24,26-13.54,40.25-33.71l.71,1.43c-14.45,20.42-30.13,29.82-40.74,34.1-11.51,4.65-19.72,4.46-19.8,4.46Z"/></g></svg>