<svg xmlns="http://www.w3.org/2000/svg" xmlns:xlink="http://www.w3.org/1999/xlink" viewBox="0 0 119.49 367.54"><defs><style>.cls-1{fill:url(#linear-gradient);}.cls-2{fill:url(#linear-gradient-2);}.cls-3{fill:url(#linear-gradient-3);}</style><linearGradient id="linear-gradient" x1="40.27" y1="350.11" x2="75.13" y2="350.11" gradientUnits="userSpaceOnUse"><stop offset="0" stop-color="#211754"/><stop offset="1" stop-color="#7e298b"/></linearGradient><linearGradient id="linear-gradient-2" x1="-15.76" y1="323.36" x2="140.53" y2="323.36" xlink:href="#linear-gradient"/><linearGradient id="linear-gradient-3" x1="56.8" y1="158" x2="60.26" y2="158" xlink:href="#linear-gradient"/></defs><title>Asset 4</title><g id="Layer_2" data-name="Layer 2"><g id="Layer_1-2" data-name="Layer 1"><path class="cls-1" d="M57.7,367.54a17.43,17.43,0,1,1,17.43-17.43A17.45,17.45,0,0,1,57.7,367.54Zm0-31.4a14,14,0,1,0,14,14A14,14,0,0,0,57.7,336.14Z"/><path class="cls-2" d="M91.34,334.41c-6.58-1.76-14-3.62-21.94-4.93-1.14-9.32-4.32-28.63-11.12-28.8-6.63-.17-10.46,17.79-12,27.11a83.06,83.06,0,0,0-19.63,2.93C7.15,336.17,0,346,0,346H119.49A126.23,126.23,0,0,0,91.34,334.41Z"/><rect class="cls-3" x="56.8" width="3.46" height="315.99"/></g></g></svg>