<svg id="Layer_1" data-name="Layer 1" xmlns="http://www.w3.org/2000/svg" xmlns:xlink="http://www.w3.org/1999/xlink" viewBox="0 0 316.28 586.62"><defs><style>.cls-1,.cls-24{opacity:0;}.cls-1{fill:url(#linear-gradient);}.cls-2{opacity:0.05;fill:url(#linear-gradient-2);}.cls-3{opacity:0.1;fill:url(#linear-gradient-3);}.cls-4{opacity:0.14;fill:url(#linear-gradient-4);}.cls-5{opacity:0.19;fill:url(#linear-gradient-5);}.cls-6{opacity:0.24;fill:url(#linear-gradient-6);}.cls-7{opacity:0.29;fill:url(#linear-gradient-7);}.cls-8{opacity:0.33;fill:url(#linear-gradient-8);}.cls-9{opacity:0.38;fill:url(#linear-gradient-9);}.cls-10{opacity:0.43;fill:url(#linear-gradient-10);}.cls-11{opacity:0.48;fill:url(#linear-gradient-11);}.cls-12{opacity:0.52;fill:url(#linear-gradient-12);}.cls-13{opacity:0.57;fill:url(#linear-gradient-13);}.cls-14{opacity:0.62;fill:url(#linear-gradient-14);}.cls-15{opacity:0.67;fill:url(#linear-gradient-15);}.cls-16{opacity:0.71;fill:url(#linear-gradient-16);}.cls-17{opacity:0.76;fill:url(#linear-gradient-17);}.cls-18{opacity:0.81;fill:url(#linear-gradient-18);}.cls-19{opacity:0.86;fill:url(#linear-gradient-19);}.cls-20{opacity:0.9;fill:url(#linear-gradient-20);}.cls-21{opacity:0.95;fill:url(#linear-gradient-21);}.cls-22{fill:url(#linear-gradient-22);}.cls-23{opacity:0.17;}.cls-24,.cls-25,.cls-26,.cls-27,.cls-28,.cls-29,.cls-30,.cls-31,.cls-32,.cls-33,.cls-34,.cls-35,.cls-36,.cls-37,.cls-38,.cls-39,.cls-40{fill:#fde7a1;}.cls-25{opacity:0.06;}.cls-26{opacity:0.13;}.cls-27{opacity:0.19;}.cls-28{opacity:0.25;}.cls-29{opacity:0.31;}.cls-30{opacity:0.38;}.cls-31{opacity:0.44;}.cls-32{opacity:0.5;}.cls-33{opacity:0.56;}.cls-34{opacity:0.63;}.cls-35{opacity:0.69;}.cls-36{opacity:0.75;}.cls-37{opacity:0.81;}.cls-38{opacity:0.88;}.cls-39{opacity:0.94;}</style><linearGradient id="linear-gradient" x1="1.4" y1="300.47" x2="315.22" y2="300.47" gradientUnits="userSpaceOnUse"><stop offset="0" stop-color="#211754"/><stop offset="1" stop-color="#7e298b"/></linearGradient><linearGradient id="linear-gradient-2" x1="2.81" y1="301.34" x2="313.98" y2="301.34" xlink:href="#linear-gradient"/><linearGradient id="linear-gradient-3" x1="4.22" y1="302.22" x2="312.74" y2="302.22" xlink:href="#linear-gradient"/><linearGradient id="linear-gradient-4" x1="5.62" y1="303.1" x2="311.5" y2="303.1" xlink:href="#linear-gradient"/><linearGradient id="linear-gradient-5" x1="7.02" y1="303.98" x2="310.27" y2="303.98" xlink:href="#linear-gradient"/><linearGradient id="linear-gradient-6" x1="8.42" y1="304.86" x2="309.04" y2="304.86" xlink:href="#linear-gradient"/><linearGradient id="linear-gradient-7" x1="9.82" y1="305.73" x2="307.82" y2="305.73" xlink:href="#linear-gradient"/><linearGradient id="linear-gradient-8" x1="11.22" y1="306.61" x2="306.6" y2="306.61" xlink:href="#linear-gradient"/><linearGradient id="linear-gradient-9" x1="12.61" y1="307.49" x2="305.38" y2="307.49" xlink:href="#linear-gradient"/><linearGradient id="linear-gradient-10" x1="14" y1="308.37" x2="304.17" y2="308.37" xlink:href="#linear-gradient"/><linearGradient id="linear-gradient-11" x1="15.39" y1="309.24" x2="302.97" y2="309.24" xlink:href="#linear-gradient"/><linearGradient id="linear-gradient-12" x1="16.78" y1="310.12" x2="301.77" y2="310.12" xlink:href="#linear-gradient"/><linearGradient id="linear-gradient-13" x1="18.15" y1="310.99" x2="300.58" y2="310.99" xlink:href="#linear-gradient"/><linearGradient id="linear-gradient-14" x1="19.53" y1="311.87" x2="299.39" y2="311.87" xlink:href="#linear-gradient"/><linearGradient id="linear-gradient-15" x1="20.9" y1="312.75" x2="298.21" y2="312.75" xlink:href="#linear-gradient"/><linearGradient id="linear-gradient-16" x1="22.26" y1="313.62" x2="297.04" y2="313.62" xlink:href="#linear-gradient"/><linearGradient id="linear-gradient-17" x1="23.62" y1="314.49" x2="295.88" y2="314.49" xlink:href="#linear-gradient"/><linearGradient id="linear-gradient-18" x1="24.97" y1="315.37" x2="294.72" y2="315.37" xlink:href="#linear-gradient"/><linearGradient id="linear-gradient-19" x1="26.31" y1="316.24" x2="293.57" y2="316.24" xlink:href="#linear-gradient"/><linearGradient id="linear-gradient-20" x1="27.64" y1="317.11" x2="292.43" y2="317.11" xlink:href="#linear-gradient"/><linearGradient id="linear-gradient-21" x1="28.96" y1="317.98" x2="291.3" y2="317.98" xlink:href="#linear-gradient"/><linearGradient id="linear-gradient-22" x1="30.28" y1="318.85" x2="290.19" y2="318.85" xlink:href="#linear-gradient"/></defs><title>U1</title><path class="cls-1" d="M191.76,586.08S189,498.6,237.06,419.44c28.43-46.8,88.91-211.56,76.51-239.71S239.85,151.85,204.4,282.21c-11.53,42.4-34.52,255.71-34.52,255.71s35.88-252.66,43.84-300.39C239.32,84,245.3,19.93,219.21,15.13s-59,52.51-62.55,158.05-12.61,109.53,9,153c-4-103.78,21.64-186.77-79.27-222.46C54.06,92.23,99.27,255.25,113.5,297.94s20.59,67.27,20.59,67.27,3,10.12-43.24-61.78C54.18,246.44,13.28,206,5,232.73S2,323,26.32,357.66s73.43,58,83.75,73.45,31.66,101.59,29.74,124.24a55,55,0,0,1-13.27,30.73Z"/><path class="cls-2" d="M190.83,586.08S187.89,498.5,236,419.34c28.43-46.8,88.28-211.44,76.47-238.24S238.73,157.19,203.88,288c-11.32,42.45-34,249.89-34,249.89s34.93-251.12,42.89-298.85c25.6-153.57,30.52-217.63,5.68-222.21s-57.43,51.2-61,156.75-12,117.75,8.22,161.82c-4.56-103.83,19.45-190.49-78.43-228.69-30.54-8.17,13.26,148.81,27.2,191.81,13.89,42.78,21.18,76.66,21.18,76.66s2.37,3.24-43.9-68.66c-36.67-57-77.54-97.37-85.39-71.87S3,322.37,27.28,357s73.19,57.84,83.52,73.33,31.69,102.34,29.77,125a56.18,56.18,0,0,1-12.8,30.73Z"/><path class="cls-3" d="M189.91,586.08s-3.1-87.67,45-166.83c28.44-46.8,87.66-211.32,76.44-236.79s-73.72-19.93-108,111.39c-11.11,42.49-33.47,244.07-33.47,244.07s34-249.58,41.94-297.31C237.42,87,241.29,23,217.69,18.6S161.83,68.48,158.27,174s-11.45,126,7.44,170.7C160.6,240.83,183,150.51,88.11,109.8c-28.73-4.89,13.66,146.06,27.3,189.37a855.5,855.5,0,0,1,21.78,86s1.71-3.63-44.56-75.54c-36.67-57-77.52-97.26-85-73S3.91,321.74,28.24,356.39s73,57.74,83.28,73.22,31.73,103.08,29.81,125.73A57.71,57.71,0,0,1,129,586.08Z"/><path class="cls-4" d="M189,586.08s-3.26-87.77,44.84-166.93c28.43-46.8,87-211.2,76.4-235.32s-73.73-16-107.4,115.84c-10.9,42.54-33,238.25-33,238.25s33-248,41-295.77c25.6-153.57,28.42-217.69,6.06-221.81s-54.29,48.57-57.85,154.11S148.21,308.67,165.72,354C160.08,250.07,180.8,156.07,89,112.87,62,111.25,103,256.16,116.36,299.78c13.23,42.94,22.38,95.43,22.38,95.43s1-10.51-45.22-82.41C56.85,255.81,16,215.63,9,238.58S4.86,321.1,29.2,355.76s72.73,57.62,83.05,73.1S144,532.68,142.09,555.33a59.45,59.45,0,0,1-11.86,30.75Z"/><path class="cls-5" d="M188.07,586.08s-3.42-87.86,44.68-167c28.43-46.79,86.4-211.08,76.36-233.86s-73.73-12-106.8,120.3c-10.69,42.58-32.43,232.43-32.43,232.43s32.08-246.5,40-294.24C235.52,90.11,237.29,26,216.17,22.08s-52.73,47.25-56.28,152.8-10.29,142.44,5.85,188.44c-6.19-104,12.9-201.68-75.92-247.39-25.12,1.66,14.46,140.54,27.5,184.46,12.89,43,23,104.82,23,104.82s.39-17.39-45.88-89.29c-36.67-57-77.47-97.06-84.14-75.39s-4.45,79.94,19.89,114.6,72.49,57.5,82.82,73,31.8,104.57,29.87,127.22a61.37,61.37,0,0,1-11.39,30.75Z"/><path class="cls-6" d="M187.15,586.08s-3.57-88,44.52-167.12c28.43-46.8,85.78-211,76.33-232.4s-73.74-8-106.21,124.75c-10.48,42.63-31.91,226.61-31.91,226.61S201,293,209,245.22c25.6-153.57,26.31-217.74,6.44-221.4S164.25,69.75,160.69,175.3,151,326,165.76,372.61C159,268.53,176.47,167.21,90.68,119c-23.32,4.93,14.85,137.77,27.59,182,12.56,43.1,23.57,114.19,23.57,114.19S141.57,390.94,95.3,319c-36.67-57-77.45-97-83.73-76.56s-4.79,77.36,19.54,112,72.27,57.38,82.6,72.87,31.83,105.3,29.9,128a63.64,63.64,0,0,1-10.92,30.76Z"/><path class="cls-7" d="M186.23,586.08S182.5,498,230.59,418.86C259,372.06,315.74,208,306.89,187.92s-73.74-4-105.63,129.2c-10.26,42.68-31.38,220.8-31.38,220.8S200.06,294.49,208,246.76C233.62,93.19,233.28,29,214.65,25.55S165.06,70.18,161.5,175.72s-9.12,158.91,4.28,206.19c-7.27-104.14,8.52-209.13-74.25-259.85-21.51,8.21,15.25,135,27.7,179.56,12.22,43.19,24.16,123.58,24.16,123.58s-.93-31.14-47.2-103c-36.67-57-77.43-96.86-83.31-77.73S7.74,319.21,32.07,353.86s72,57.27,82.36,72.76,31.87,106,29.94,128.69a66.23,66.23,0,0,1-10.45,30.77Z"/><path class="cls-8" d="M185.31,586.08s-3.89-88.15,44.2-167.31C258,372,314,208.05,305.77,189.29s-73.74-.06-105,133.65c-10.05,42.73-30.86,215-30.86,215S199.11,296,207.07,248.3c25.6-153.57,24.21-217.8,6.82-221s-48,43.31-51.58,148.86-8.54,167.13,3.49,215.05C158,287,172.13,178.35,92.39,125.12,72.68,136.61,108,257.38,120.18,302.24c11.89,43.27,24.76,133,24.76,133s-1.59-38-47.86-109.92c-36.66-57-77.4-96.75-82.89-78.9S8.7,318.57,33,353.23s71.81,57.15,82.13,72.64,31.9,106.79,30,129.44a69.23,69.23,0,0,1-10,30.77Z"/><path class="cls-9" d="M184.39,586.08s-4-88.25,44.05-167.41c28.43-46.8,83.9-210.6,76.22-228s-73.75,3.92-104.44,138.11c-9.84,42.77-30.34,209.16-30.34,209.16s28.28-240.35,36.24-288.08C231.72,96.27,229.28,32,213.13,29s-46.46,42-50,147.54-8,175.36,2.71,223.93C157.46,296.24,170,183.91,93.24,128.19c-17.9,14.75,16.05,129.5,27.89,174.66,11.56,43.35,25.36,142.35,25.36,142.35S144.24,400.31,98,328.4c-36.67-57-77.39-96.65-82.49-80.07S9.65,317.94,34,352.6s71.57,57,81.9,72.52,31.93,107.53,30,130.18c-1.58,18.53-9.52,30.78-9.52,30.78Z"/><path class="cls-10" d="M183.46,586.08s-4.2-88.35,43.9-167.51c28.43-46.8,83.27-210.47,76.19-226.55S229.8,199.91,199.7,334.58c-9.63,42.82-29.82,203.34-29.82,203.34s27.33-238.81,35.29-286.55c25.59-153.57,22.1-217.86,7.2-220.6S167.48,71.45,163.92,177s-7.38,183.59,1.92,232.8c-8.91-104.32,1.95-220.31-71.74-278.54-16.1,18,16.35,126.77,28,172.21C133.22,346.92,148,455.2,148,455.2s-2.91-51.77-49.17-123.68C62.2,274.54,21.51,235,16.8,250.28S10.61,317.31,35,352s71.34,56.92,81.66,72.4,32,108.27,30.05,130.92c-1.58,18.53-9,30.79-9,30.79Z"/><path class="cls-11" d="M182.54,586.08s-4.35-88.44,43.74-167.6c28.43-46.8,82.65-210.36,76.15-225.1s-73.75,11.87-103.26,147c-9.41,42.86-29.29,197.52-29.29,197.52s26.38-237.28,34.33-285c25.6-153.57,21.06-217.89,7.4-220.4s-43.33,39.36-46.88,144.91-6.8,191.82,1.13,241.67c-9.45-104.38-.24-224-70.91-284.78-14.29,21.31,16.75,124,28.09,169.77,10.8,43.54,26.55,161.12,26.55,161.12S146,406.55,99.76,334.65c-36.67-57-77.34-96.45-81.65-82.42s-6.54,64.45,17.79,99.1,71.12,56.81,81.44,72.29,32,109,30.08,131.67c-1.57,18.53-8.58,30.79-8.58,30.79Z"/><path class="cls-12" d="M181.62,586.08s-4.51-88.54,43.58-167.7c28.43-46.8,82-210.23,76.12-223.63s-73.76,15.84-102.67,151.47c-9.21,42.91-28.77,191.7-28.77,191.7s25.43-235.74,33.38-283.47c25.6-153.57,20-217.92,7.59-220.21s-41.76,38.05-45.32,143.6-6.21,200,.35,250.54c-10-104.44-2.43-227.76-70.07-291C83.32,162,113,258.62,124,304.69c10.46,43.62,27.14,170.51,27.14,170.51s-4.23-65.53-50.49-137.43c-36.67-57-77.32-96.34-81.24-83.59S12.53,316,36.86,350.7s70.89,56.69,81.21,72.18,32,109.75,30.11,132.4c-1.57,18.53-8.11,30.8-8.11,30.8Z"/><path class="cls-13" d="M180.7,586.08s-4.67-88.63,43.42-167.8c28.43-46.79,81.4-210.11,76.09-222.17S226.44,215.93,198.13,352c-9,42.95-28.25,185.88-28.25,185.88S194.36,303.72,202.31,256c25.6-153.57,19-217.95,7.78-220S169.9,72.72,166.34,178.26s-5.63,208.28-.44,259.42c-10.54-104.5-4.61-231.49-69.24-297.24C86,168.3,114.29,258.91,125,305.31,135.17,349,152.69,485.2,152.69,485.2s-4.88-72.41-51.15-144.31c-36.67-57-77.29-96.24-80.82-84.76s-7.24,59.28,17.1,93.94,70.65,56.57,81,72.06,32.07,110.49,30.14,133.14c-1.57,18.53-7.64,30.81-7.64,30.81Z"/><path class="cls-14" d="M179.78,586.08S175,497.35,223.05,418.19c28.43-46.8,80.77-210,76-220.71s-73.76,23.79-101.48,160.38c-8.79,43-27.73,180.06-27.73,180.06s23.53-232.66,31.48-280.39c25.6-153.57,17.9-218,8-219.81s-38.63,35.42-42.19,141-5,216.5-1.22,268.29c-11.08-104.57-6.8-235.23-68.4-303.47-8.88,31.13,18,115.7,28.39,162.41,9.88,43.76,28.33,189.27,28.33,189.27S148.7,415.91,102.43,344C65.76,287,25.16,247.88,22,258.08s-7.58,56.7,16.76,91.36,70.42,56.45,80.74,71.94,32.11,111.23,30.18,133.89c-1.57,18.53-7.17,30.81-7.17,30.81Z"/><path class="cls-15" d="M178.86,586.08s-5-88.83,43.11-168c28.43-46.8,80.14-209.87,76-219.25s-73.77,27.77-100.9,164.84c-8.57,43-27.2,174.24-27.2,174.24s22.58-231.12,30.53-278.86c25.6-153.57,16.85-218,8.16-219.6S171.51,73.56,168,179.11s-4.47,224.74-2,277.16c-11.62-104.63-9-238.95-67.57-309.7-7.07,34.41,18.43,113,28.49,160,9.55,43.85,28.93,198.66,28.93,198.66s-6.2-86.15-52.47-158.06c-36.67-57-77.24-96-80-87.1s-7.93,54.12,16.41,88.78,70.19,56.34,80.51,71.82,32.14,112,30.21,134.63c-1.57,18.53-6.7,30.82-6.7,30.82Z"/><path class="cls-16" d="M177.94,586.08S172.8,497.16,220.89,418c28.43-46.8,79.52-209.75,76-217.79S223.09,232,196.56,369.49c-8.36,43.1-26.68,168.43-26.68,168.43S191.5,308.33,199.46,260.6c25.6-153.57,15.8-218,8.35-219.4S172.32,74,168.76,179.53s-3.89,233-2.8,286c-12.17-104.69-11.18-242.68-66.73-315.94C94,187.32,118.05,259.82,127.81,307.15c9.22,43.92,29.53,208,29.53,208s-6.86-93-53.13-164.94C67.54,293.27,27,254.33,24.64,262s-8.28,51.53,16,86.19,70,56.23,80.29,71.71,32.17,112.72,30.25,135.37c-1.58,18.53-6.24,30.83-6.24,30.83Z"/><path class="cls-17" d="M177,586.08s-5.3-89,42.79-168.18c28.43-46.8,78.89-209.63,75.94-216.33S222,237.29,196,375.31c-8.15,43.14-26.16,162.61-26.16,162.61s20.67-228,28.63-275.78c25.6-153.57,14.75-218.06,8.54-219.21s-33.93,31.48-37.49,137-3.3,241.19-3.58,294.9c-12.71-104.75-13.37-246.4-65.9-322.16-3.46,41,19.22,107.43,28.69,155.06,8.88,44,30.12,217.43,30.12,217.43s-7.52-99.91-53.79-171.81c-36.67-57-77.2-95.83-79.16-89.45s-8.62,48.95,15.71,83.61,69.73,56.11,80.06,71.59S153.91,532.59,152,555.25c-1.58,18.53-5.77,30.83-5.77,30.83Z"/><path class="cls-18" d="M176.1,586.08S170.64,497,218.73,417.8C247.16,371,297,208.3,294.64,202.94s-73.78,39.69-99.12,178.19c-7.94,43.19-25.64,156.79-25.64,156.79s19.72-226.51,27.68-274.24c25.6-153.57,13.69-218.09,8.73-219s-32.36,30.16-35.92,135.71S167.65,429.8,166,484.16C152.74,379.35,150.44,234,100.94,155.76,99.28,200,120.55,260.43,129.72,308.37c8.55,44.1,30.72,226.82,30.72,226.82S152.26,428.4,106,356.5c-36.67-57-77.17-95.72-78.74-90.62s-9,46.37,15.36,81,69.5,56,79.82,71.48,32.24,114.2,30.32,136.85a165.56,165.56,0,0,1-5.31,30.84Z"/><path class="cls-19" d="M175.17,586.08s-5.61-89.21,42.48-168.37c28.44-46.8,77.65-209.39,75.88-213.41S219.74,248,195,387c-7.72,43.23-25.11,151-25.11,151s18.77-225,26.73-272.7c25.6-153.57,12.64-218.12,8.92-218.81S174.74,75.26,171.18,180.8,169,438.46,166,493.45c-13.8-104.87-17.75-253.86-64.23-334.62.15,47.5,20,101.91,28.89,150.16,8.21,44.17,31.31,236.2,31.31,236.2s-8.84-113.67-55.11-185.57c-36.67-57-77.15-95.62-78.32-91.79s-9.33,43.79,15,78.45,69.27,55.87,79.59,71.36,32.27,114.94,30.35,137.59a197.6,197.6,0,0,1-4.84,30.85Z"/><path class="cls-20" d="M174.25,586.08s-5.77-89.31,42.33-168.47c28.43-46.8,77-209.26,75.83-211.95s-73.79,47.65-97.94,187.11c-7.51,43.28-24.59,145.15-24.59,145.15s17.82-223.43,25.78-271.16c25.6-153.58,11.59-218.16,9.11-218.61S175.54,75.68,172,181.23,170.42,447.11,166,502.75C151.7,397.82,146.1,245.16,102.65,161.89c1.95,50.78,20.41,99.15,29,147.71,7.88,44.26,31.91,245.59,31.91,245.59S154,434.64,107.77,362.74c-36.66-57-77.12-95.51-77.91-93S20.19,311,44.53,345.64s69,55.76,79.36,71.25,32.3,115.68,30.38,138.34a248.65,248.65,0,0,1-4.37,30.85Z"/><path class="cls-21" d="M173.33,586.08s-5.93-89.4,42.17-168.56c28.43-46.8,76.39-209.15,75.8-210.49S217.51,258.65,194,398.59c-7.31,43.32-24.07,139.33-24.07,139.33S186.75,316,194.71,268.29c25.6-153.57,10.54-218.18,9.3-218.4S176.35,76.1,172.79,181.65s-1,274.11-6.73,330.39c-14.89-105-22.12-261.31-62.55-347.09,3.75,54.06,20.8,96.4,29.08,145.27,7.54,44.34,32.5,255,32.5,255s-10.16-127.42-56.42-199.33c-36.67-57-77.11-95.41-77.5-94.13s-10,38.62,14.31,73.28,68.81,55.65,79.14,71.13S157,532.57,155,555.22c-1.57,18.53-3.9,30.86-3.9,30.86Z"/><path class="cls-22" d="M172.41,586.08s-6.08-89.5,42-168.66c28.43-46.8,75.77-209,75.77-209s-73.8,55.6-96.76,196c-7.1,43.36-23.55,133.51-23.55,133.51s15.92-220.36,23.88-268.09c25.6-153.57,9.48-218.21,9.48-218.21S177.15,76.53,173.6,182.07s-.4,282.34-7.52,339.27c-15.43-105.06-24.31-265-61.72-353.32,5.56,57.33,21.2,93.63,29.18,142.81,7.21,44.42,33.1,264.35,33.1,264.35S155.82,440.89,109.56,369c-36.67-57-77.09-95.3-77.09-95.3s-10.36,36,14,70.7,68.58,55.53,78.9,71,32.38,117.17,30.45,139.82c-1.57,18.53-3.43,30.87-3.43,30.87Z"/><g class="cls-23"><path class="cls-24" d="M85.47,327.55c-4.45-2.34-14.72-3.19-25.33-7.92-9.79-4.35-43.65-12.2-48.66-13.53s-4.7-15.14,1-16.41,31.43-1.61,52.55,7.77c10.74,4.77,26,16.61,28.51,20.16S89.93,329.89,85.47,327.55Z"/><path class="cls-25" d="M85,327c-4.18-2.2-14.2-3.31-24.82-8-9.79-4.36-42.5-12-48.35-13.23-4.7-1.24-4.4-14.26.94-15.45,6.51-1.24,31.61-1.24,52,7.83,10.74,4.77,25.47,16.19,27.8,19.51S89.2,329.19,85,327Z"/><path class="cls-26" d="M84.57,326.43c-3.91-2.06-13.68-3.42-24.3-8.14-9.79-4.36-41.35-11.85-48.05-12.92-4.39-1.17-4.11-13.38.88-14.5,7.32-1.21,31.79-.87,51.51,7.89,10.74,4.78,24.92,15.76,27.1,18.87S88.47,328.48,84.57,326.43Z"/><path class="cls-27" d="M84.12,325.87C80.48,324,71,322.34,60.34,317.61c-9.79-4.35-40.21-11.67-47.75-12.61-4.07-1.08-3.82-12.5.81-13.54,8.14-1.18,32-.5,51,8,10.74,4.78,24.37,15.34,26.39,18.23S87.74,327.78,84.12,325.87Z"/><path class="cls-28" d="M83.66,325.32c-3.36-1.78-12.64-3.66-23.25-8.38-9.79-4.36-39.07-11.5-47.44-12.3-3.77-1-3.54-11.63.74-12.58,8.94-1.16,32.17-.14,50.49,8C74.93,304.84,88,315,89.88,317.65S87,327.07,83.66,325.32Z"/><path class="cls-29" d="M83.21,324.76c-3.08-1.63-12.12-3.77-22.74-8.49-9.79-4.36-37.92-11.33-47.13-12-3.45-.91-3.24-10.74.68-11.62,9.75-1.12,32.35.23,50,8.07,10.74,4.77,23.25,14.48,25,16.94S86.27,326.37,83.21,324.76Z"/><path class="cls-30" d="M82.76,324.2c-2.81-1.49-11.6-3.88-22.22-8.61-9.79-4.35-36.78-11.14-46.83-11.68-3.13-.83-3-9.87.61-10.67,10.57-1.09,32.54.61,49.46,8.13,10.74,4.77,22.7,14.06,24.27,16.3S85.54,325.66,82.76,324.2Z"/><path class="cls-31" d="M82.3,323.64c-2.53-1.34-11.07-4-21.69-8.72-9.79-4.36-35.64-11-46.53-11.38-2.82-.74-2.66-9,.55-9.7,11.38-1.07,32.72,1,48.94,8.18,10.74,4.77,22.14,13.64,23.57,15.66S84.81,325,82.3,323.64Z"/><path class="cls-32" d="M81.85,323.08c-2.26-1.2-10.56-4.11-21.17-8.83-9.79-4.36-34.49-10.8-46.22-11.07-2.51-.67-2.37-8.12.48-8.75,12.18-1,32.91,1.34,48.42,8.24,10.74,4.78,21.59,13.22,22.86,15S84.08,324.25,81.85,323.08Z"/><path class="cls-33" d="M81.4,322.52c-2-1-10-4.22-20.66-8.95C51,309.22,27.4,303,14.83,302.81c-2.2-.58-2.08-7.23.41-7.79,13-1,33.1,1.71,47.91,8.3,10.74,4.78,21,12.79,22.16,14.38S83.35,323.55,81.4,322.52Z"/><path class="cls-34" d="M81,322c-1.71-.91-9.52-4.34-20.14-9.06-9.79-4.36-32.2-10.44-45.61-10.45-1.88-.5-1.79-6.36.35-6.84,13.81-1,33.28,2.08,47.39,8.36,10.74,4.78,20.48,12.37,21.45,13.73S82.62,322.84,81,322Z"/><path class="cls-35" d="M80.49,321.41c-1.43-.77-9-4.46-19.61-9.18-9.79-4.36-31.06-10.27-45.31-10.15-1.57-.41-1.5-5.48.29-5.87,14.62-.95,33.47,2.45,46.88,8.41,10.73,4.78,19.92,11.95,20.74,13.09S81.89,322.14,80.49,321.41Z"/><path class="cls-36" d="M80,320.85c-1.16-.63-8.48-4.57-19.09-9.3-9.8-4.35-29.92-10.09-45-9.83-1.25-.33-1.2-4.6.22-4.92,15.43-.92,33.66,2.82,46.37,8.47,10.73,4.78,19.37,11.53,20,12.45S81.16,321.43,80,320.85Z"/><path class="cls-37" d="M79.59,320.29A204.41,204.41,0,0,0,61,310.88c-9.79-4.36-28.76-9.91-44.69-9.53-.94-.24-.92-3.72.15-4,16.24-.88,33.84,3.19,45.85,8.53,10.73,4.78,18.82,11.1,19.33,11.81S80.42,320.73,79.59,320.29Z"/><path class="cls-38" d="M79.14,319.73a148.21,148.21,0,0,0-18.06-9.52c-9.79-4.36-27.62-9.74-44.39-9.22-.63-.17-.63-2.85.08-3a104.24,104.24,0,0,1,45.34,8.6c10.74,4.78,18.26,10.67,18.63,11.16S79.69,320,79.14,319.73Z"/><path class="cls-39" d="M78.68,319.17a112.36,112.36,0,0,0-17.53-9.64c-9.79-4.35-26.48-9.56-44.09-8.91-.31-.08-.33-2,0-2a101.88,101.88,0,0,1,44.82,8.65,83.42,83.42,0,0,1,17.92,10.52C80,318,79,319.32,78.68,319.17Z"/><path class="cls-40" d="M78.23,318.61a87.52,87.52,0,0,0-17-9.75,98.65,98.65,0,0,0-43.79-8.6l0-1.09a99.58,99.58,0,0,1,44.3,8.71,87.83,87.83,0,0,1,17.22,9.88Z"/></g><g class="cls-23"><path class="cls-24" d="M150.71,223.2c-3.57-1.66-12.28-1.32-20.88-4.5-7.92-2.93-36.11-6.44-40.27-7.11s-2.38-13.37,2.65-15.15,27.13-4.9,44.23,1.4c8.7,3.21,20.52,12.39,22.26,15.38S154.27,224.86,150.71,223.2Z"/><path class="cls-25" d="M150.38,222.74c-3.35-1.56-11.82-1.49-20.42-4.66-7.92-2.93-35.15-6.4-40-6.86-3.9-.64-2.22-12.6,2.49-14.27,5.72-1.85,27.25-4.58,43.78,1.51,8.7,3.21,20.09,12.07,21.73,14.86S153.72,224.3,150.38,222.74Z"/><path class="cls-26" d="M150.05,222.27c-3.13-1.46-11.36-1.64-20-4.82-7.92-2.93-34.18-6.36-39.81-6.61-3.64-.59-2.07-11.82,2.33-13.38,6.41-1.91,27.37-4.26,43.33,1.62,8.7,3.21,19.66,11.74,21.19,14.35S153.17,223.73,150.05,222.27Z"/><path class="cls-27" d="M149.72,221.81c-2.9-1.36-10.9-1.81-19.49-5-7.93-2.93-33.23-6.33-39.59-6.36-3.38-.55-1.92-11.05,2.17-12.5,7.11-2,27.49-3.95,42.88,1.73,8.7,3.21,19.23,11.41,20.66,13.84S152.62,223.16,149.72,221.81Z"/><path class="cls-28" d="M149.4,221.35c-2.69-1.26-10.45-2-19-5.15-7.93-2.93-32.26-6.29-39.36-6.11-3.12-.51-1.77-10.27,2-11.61,7.8-2,27.61-3.63,42.43,1.84,8.7,3.21,18.8,11.08,20.12,13.33S152.07,222.6,149.4,221.35Z"/><path class="cls-29" d="M149.07,220.89c-2.47-1.16-10-2.14-18.58-5.31-7.93-2.93-31.3-6.25-39.13-5.87-2.86-.46-1.61-9.49,1.85-10.72,8.49-2.1,27.72-3.31,42,1.95,8.69,3.21,18.36,10.75,19.58,12.81S151.52,222,149.07,220.89Z"/><path class="cls-30" d="M148.74,220.42c-2.25-1-9.53-2.29-18.12-5.47-7.93-2.93-30.34-6.21-38.9-5.61-2.6-.42-1.46-8.73,1.68-9.84,9.19-2.16,27.85-3,41.55,2.06,8.69,3.21,17.94,10.42,19,12.3S151,221.46,148.74,220.42Z"/><path class="cls-31" d="M148.41,220c-2-1-9.06-2.46-17.66-5.63-7.92-2.93-29.37-6.18-38.67-5.37-2.34-.37-1.31-8,1.52-9,9.88-2.22,28-2.67,41.1,2.17,8.69,3.21,17.51,10.09,18.51,11.79S150.42,220.9,148.41,220Z"/><path class="cls-32" d="M148.09,219.5c-1.81-.85-8.61-2.62-17.21-5.8-7.92-2.92-28.41-6.14-38.44-5.11-2.08-.34-1.15-7.18,1.36-8.07,10.57-2.28,28.09-2.36,40.65,2.28,8.69,3.21,17.08,9.77,18,11.28S149.87,220.33,148.09,219.5Z"/><path class="cls-33" d="M147.76,219c-1.59-.75-8.15-2.78-16.75-6-7.92-2.93-27.45-6.1-38.21-4.87-1.82-.29-1-6.4,1.2-7.19,11.26-2.33,28.21-2,40.2,2.4,8.69,3.21,16.65,9.44,17.44,10.76S149.32,219.76,147.76,219Z"/><path class="cls-34" d="M147.43,218.57c-1.37-.65-7.69-2.94-16.29-6.11-7.92-2.93-26.48-6.07-38-4.62-1.55-.25-.84-5.63,1-6.31,12-2.39,28.32-1.71,39.75,2.51,8.69,3.21,16.22,9.11,16.9,10.25S148.77,219.2,147.43,218.57Z"/><path class="cls-35" d="M147.1,218.11c-1.15-.55-7.23-3.1-15.83-6.28-7.92-2.93-25.52-6-37.76-4.37-1.3-.21-.69-4.86.89-5.42,12.64-2.45,28.44-1.39,39.3,2.62,8.69,3.21,15.79,8.78,16.37,9.74S148.22,218.63,147.1,218.11Z"/><path class="cls-36" d="M146.78,217.65c-.93-.45-6.78-3.27-15.37-6.44-7.93-2.93-24.56-6-37.54-4.12-1-.17-.53-4.09.72-4.54,13.34-2.51,28.57-1.07,38.86,2.73,8.69,3.21,15.36,8.45,15.83,9.23S147.67,218.06,146.78,217.65Z"/><path class="cls-37" d="M146.45,217.18a127.6,127.6,0,0,0-14.91-6.6c-7.93-2.93-23.6-6-37.31-3.87-.78-.12-.38-3.31.56-3.65,14-2.57,28.69-.76,38.41,2.84,8.69,3.21,14.93,8.12,15.3,8.72S147.12,217.5,146.45,217.18Z"/><path class="cls-38" d="M146.12,216.72A91.46,91.46,0,0,0,131.67,210a79.24,79.24,0,0,0-37.08-3.62c-.52-.08-.23-2.54.4-2.77,14.72-2.64,28.81-.44,38,3,8.69,3.21,14.5,7.8,14.76,8.2S146.57,216.93,146.12,216.72Z"/><path class="cls-39" d="M145.79,216.26a69.11,69.11,0,0,0-14-6.93A74.89,74.89,0,0,0,95,206c-.26,0-.07-1.76.24-1.88a73.67,73.67,0,0,1,37.51,3.06,51.1,51.1,0,0,1,14.23,7.69C147,215,146,216.36,145.79,216.26Z"/><path class="cls-40" d="M145.47,215.8a52.78,52.78,0,0,0-13.54-7.09,70.85,70.85,0,0,0-36.62-3.12l.08-1a71.77,71.77,0,0,1,37.06,3.16,53.65,53.65,0,0,1,13.69,7.19Z"/></g><g class="cls-23"><path class="cls-24" d="M153.55,253c-3-.31-9.86,2.92-17.06,2.92-6.63,0-29.33,6.29-32.7,7.07s-3.62-11.36.11-14.68,20.76-13.57,35.08-13.58c7.28,0,17.81,4.37,19.57,6.5S156.58,253.36,153.55,253Z"/><path class="cls-25" d="M153.23,252.73c-2.85-.3-9.52,2.62-16.71,2.62-6.64,0-28.57,6-32.49,7.22-3.16.74-3.4-10.71.1-13.82,4.27-3.6,20.89-13.32,34.73-13.34,7.28,0,17.43,4.23,19.09,6.22S156.07,253,153.23,252.73Z"/><path class="cls-26" d="M152.91,252.42c-2.66-.28-9.18,2.32-16.37,2.32-6.64,0-27.81,5.7-32.28,7.37-2.94.69-3.18-10.06.09-13,4.81-3.9,21-13.08,34.4-13.09,7.28,0,17,4.07,18.59,5.93S155.57,252.69,152.91,252.42Z"/><path class="cls-27" d="M152.59,252.11c-2.47-.26-8.83,2-16,2-6.64,0-27,5.41-32.06,7.52-2.74.63-3-9.41.07-12.1,5.35-4.19,21.17-12.83,34.06-12.84,7.28,0,16.66,3.91,18.11,5.65S155.06,252.36,152.59,252.11Z"/><path class="cls-28" d="M152.27,251.8c-2.28-.24-8.49,1.71-15.69,1.71-6.63,0-26.27,5.13-31.85,7.68-2.52.58-2.73-8.76.07-11.25,5.88-4.47,21.3-12.58,33.72-12.58,7.27,0,16.28,3.76,17.61,5.36S154.55,252,152.27,251.8Z"/><path class="cls-29" d="M152,251.49c-2.1-.23-8.16,1.41-15.36,1.41-6.63,0-25.51,4.84-31.63,7.82-2.32.54-2.52-8.1,0-10.38,6.42-4.76,21.44-12.33,33.38-12.34,7.28,0,15.9,3.61,17.13,5.08S154,251.7,152,251.49Z"/><path class="cls-30" d="M151.64,251.18c-1.92-.21-7.82,1.11-15,1.11-6.63,0-24.74,4.54-31.42,8-2.1.49-2.29-7.45,0-9.52,7-5.05,21.58-12.08,33-12.09,7.28,0,15.52,3.45,16.64,4.79S153.53,251.37,151.64,251.18Z"/><path class="cls-31" d="M151.32,250.86c-1.73-.18-7.48.82-14.67.82-6.64,0-24,4.25-31.22,8.12-1.89.44-2.07-6.8,0-8.67,7.5-5.33,21.71-11.83,32.7-11.83,7.27,0,15.13,3.3,16.14,4.5S153,251,151.32,250.86Z"/><path class="cls-32" d="M151,250.55c-1.54-.16-7.14.52-14.33.52-6.64,0-23.22,4-31,8.27-1.69.39-1.85-6.15,0-7.81,8-5.62,21.85-11.58,32.36-11.58,7.28,0,14.76,3.14,15.66,4.21S152.51,250.71,151,250.55Z"/><path class="cls-33" d="M150.68,250.24c-1.35-.15-6.79.21-14,.21-6.64,0-22.45,3.68-30.79,8.43-1.47.34-1.62-5.5,0-6.95,8.58-5.91,22-11.33,32-11.34,7.27,0,14.37,3,15.16,3.94S152,250.38,150.68,250.24Z"/><path class="cls-34" d="M150.36,249.93c-1.16-.13-6.45-.09-13.65-.09-6.63,0-21.69,3.39-30.57,8.57-1.27.3-1.41-4.84,0-6.08,9.11-6.2,22.12-11.09,31.68-11.09,7.28,0,14,2.84,14.68,3.65S151.5,250.05,150.36,249.93Z"/><path class="cls-35" d="M150,249.62c-1-.11-6.11-.39-13.31-.39-6.63,0-20.92,3.09-30.36,8.72-1.05.25-1.18-4.19,0-5.23,9.65-6.48,22.26-10.83,31.34-10.83,7.28,0,13.61,2.68,14.19,3.36S151,249.72,150,249.62Z"/><path class="cls-36" d="M149.72,249.31a112.93,112.93,0,0,0-13-.69c-6.63,0-20.16,2.8-30.14,8.87-.85.2-1-3.54,0-4.37,10.19-6.77,22.4-10.58,31-10.58,7.27,0,13.22,2.52,13.7,3.07S150.48,249.39,149.72,249.31Z"/><path class="cls-37" d="M149.4,249a75.69,75.69,0,0,0-12.62-1c-6.64,0-19.4,2.52-29.94,9-.63.14-.74-2.89,0-3.51,10.74-7.06,22.53-10.34,30.67-10.34,7.28,0,12.85,2.38,13.21,2.79S150,249.06,149.4,249Z"/><path class="cls-38" d="M149.08,248.69a54.92,54.92,0,0,0-12.28-1.3c-6.64,0-18.63,2.23-29.73,9.18-.42.09-.51-2.24,0-2.66,11.27-7.35,22.66-10.08,30.33-10.08,7.27,0,12.46,2.22,12.72,2.5S149.46,248.73,149.08,248.69Z"/><path class="cls-39" d="M148.77,248.38a41.23,41.23,0,0,0-12-1.6c-6.64,0-17.87,1.93-29.51,9.32-.21,0-.29-1.58-.06-1.79,11.81-7.64,22.8-9.83,30-9.83s12.08,2.07,12.23,2.22S149,248.4,148.77,248.38Z"/><path class="cls-40" d="M148.45,248.07a31.67,31.67,0,0,0-11.61-1.9c-6.63,0-17.1,1.64-29.3,9.47l-.07-.93c12.35-7.93,22.94-9.59,29.65-9.58a32,32,0,0,1,11.75,1.93Z"/></g><g class="cls-23"><path class="cls-24" d="M212.51,135c-2.95.78-8.2,6.21-14.93,8.75-6.21,2.35-25.22,16.24-28.1,18.16s-7.4-9.35-5.08-13.77,14.63-20,28-25.1c6.81-2.57,18.21-2.19,20.61-.82S215.45,134.18,212.51,135Z"/><path class="cls-25" d="M212.1,134.78c-2.77.73-8,5.81-14.72,8.35-6.2,2.35-24.61,15.7-27.84,18.23-2.7,1.8-7-8.82-4.79-13,2.72-4.88,14.85-19.84,27.79-24.74,6.81-2.57,17.8-2.2,20.05-.92S214.86,134.05,212.1,134.78Z"/><path class="cls-26" d="M211.69,134.6c-2.59.68-7.77,5.41-14.5,8-6.21,2.35-24,15.15-27.6,18.29-2.51,1.68-6.52-8.29-4.49-12.16,3.12-5.34,15.06-19.66,27.56-24.38,6.81-2.58,17.39-2.21,19.49-1S214.27,133.92,211.69,134.6Z"/><path class="cls-27" d="M211.28,134.42c-2.4.63-7.55,5-14.29,7.55-6.21,2.34-23.38,14.61-27.34,18.36-2.34,1.56-6.09-7.76-4.2-11.35,3.53-5.8,15.28-19.48,27.33-24,6.81-2.57,17-2.22,18.94-1.1S213.68,133.79,211.28,134.42Z"/><path class="cls-28" d="M210.87,134.25c-2.22.58-7.34,4.6-14.07,7.14-6.21,2.34-22.78,14.07-27.09,18.42-2.16,1.44-5.66-7.22-3.91-10.54,3.93-6.26,15.49-19.29,27.1-23.68,6.81-2.57,16.56-2.23,18.38-1.2S213.09,133.66,210.87,134.25Z"/><path class="cls-29" d="M210.47,134.07c-2.05.53-7.14,4.2-13.87,6.74-6.21,2.34-22.16,13.53-26.84,18.49-2,1.32-5.21-6.7-3.61-9.74,4.33-6.72,15.71-19.1,26.87-23.32,6.81-2.57,16.15-2.24,17.82-1.3S212.49,133.53,210.47,134.07Z"/><path class="cls-30" d="M210.06,133.89c-1.86.48-6.92,3.8-13.66,6.34-6.2,2.34-21.54,13-26.58,18.55-1.8,1.2-4.78-6.16-3.33-8.92,4.74-7.18,15.93-18.92,26.65-23,6.81-2.57,15.74-2.24,17.26-1.39S211.9,133.4,210.06,133.89Z"/><path class="cls-31" d="M209.65,133.71c-1.68.44-6.71,3.4-13.44,5.94C190,142,175.27,152.1,169.87,158.27c-1.61,1.08-4.33-5.63-3-8.12,5.14-7.64,16.14-18.73,26.42-22.62,6.81-2.57,15.33-2.26,16.7-1.48S211.31,133.27,209.65,133.71Z"/><path class="cls-32" d="M209.24,133.53c-1.5.39-6.49,3-13.23,5.54-6.2,2.34-20.32,11.9-26.08,18.68-1.44,1-3.9-5.1-2.74-7.31,5.54-8.1,16.36-18.55,26.19-22.26,6.81-2.57,14.92-2.27,16.14-1.58S210.72,133.14,209.24,133.53Z"/><path class="cls-33" d="M208.83,133.35c-1.31.34-6.28,2.6-13,5.14-6.21,2.34-19.71,11.36-25.83,18.75-1.26.84-3.46-4.57-2.45-6.51,5.94-8.55,16.57-18.36,26-21.91,6.81-2.56,14.51-2.27,15.58-1.67S210.12,133,208.83,133.35Z"/><path class="cls-34" d="M208.42,133.18c-1.13.29-6.06,2.19-12.8,4.73-6.21,2.34-19.1,10.82-25.58,18.81-1.08.72-3-4-2.15-5.69,6.34-9,16.79-18.18,25.73-21.56,6.81-2.57,14.09-2.28,15-1.77S209.53,132.88,208.42,133.18Z"/><path class="cls-35" d="M208,133c-1,.24-5.86,1.79-12.59,4.33-6.21,2.34-18.49,10.28-25.33,18.88-.9.6-2.59-3.51-1.86-4.89,6.74-9.48,17-18,25.5-21.2,6.81-2.57,13.68-2.3,14.47-1.87S208.94,132.76,208,133Z"/><path class="cls-36" d="M207.61,132.82a111.38,111.38,0,0,0-12.38,3.93c-6.21,2.34-17.87,9.74-25.08,18.94-.71.48-2.14-3-1.56-4.08,7.14-9.93,17.22-17.8,25.27-20.84,6.81-2.57,13.27-2.31,13.91-2S208.35,132.63,207.61,132.82Z"/><path class="cls-37" d="M207.2,132.64A76.9,76.9,0,0,0,195,136.17c-6.2,2.34-17.26,9.2-24.82,19-.54.36-1.71-2.45-1.27-3.27,7.55-10.4,17.43-17.63,25-20.5,6.81-2.56,12.86-2.31,13.35-2S207.75,132.5,207.2,132.64Z"/><path class="cls-38" d="M206.79,132.46a56,56,0,0,0-11.95,3.13c-6.21,2.34-16.65,8.65-24.57,19.07-.36.24-1.27-1.91-1-2.46,8-10.86,17.64-17.44,24.81-20.14,6.81-2.57,12.45-2.32,12.79-2.15S207.16,132.37,206.79,132.46Z"/><path class="cls-39" d="M206.38,132.28A41.86,41.86,0,0,0,194.64,135c-6.2,2.34-16,8.11-24.32,19.14-.18.12-.83-1.38-.68-1.66,8.35-11.31,17.86-17.25,24.58-19.78s12-2.34,12.23-2.25A3.3,3.3,0,0,1,206.38,132.28Z"/><path class="cls-40" d="M206,132.11a31.45,31.45,0,0,0-11.53,2.32c-6.21,2.34-15.43,7.57-24.07,19.2l-.39-.85c8.75-11.77,18.07-17.06,24.35-19.43A32.27,32.27,0,0,1,206,131Z"/></g><g class="cls-23"><path class="cls-24" d="M163.56,258.66c2.93-.85,8-6.41,14.71-9.11,6.16-2.49,24.84-16.82,27.67-18.81s7.62,9.17,5.4,13.65-14.16,20.37-27.42,25.75c-6.75,2.73-18.15,2.62-20.58,1.31S160.63,259.5,163.56,258.66Z"/><path class="cls-25" d="M164,258.83c2.75-.8,7.84-6,14.51-8.7,6.15-2.49,24.24-16.27,27.41-18.88,2.65-1.86,7.17,8.66,5.1,12.85-2.61,5-14.38,20.19-27.21,25.39-6.74,2.74-17.73,2.62-20,1.39S161.22,259.62,164,258.83Z"/><path class="cls-26" d="M164.38,259c2.57-.74,7.64-5.6,14.31-8.3,6.15-2.48,23.64-15.71,27.16-18.93,2.47-1.74,6.72,8.13,4.78,12-3,5.41-14.6,20-27,25-6.75,2.73-17.33,2.62-19.46,1.47S161.82,259.74,164.38,259Z"/><path class="cls-27" d="M164.8,259.16c2.38-.68,7.43-5.18,14.1-7.88,6.15-2.49,23-15.16,26.9-19,2.3-1.62,6.27,7.61,4.47,11.24-3.39,5.88-14.81,19.83-26.76,24.67-6.74,2.74-16.91,2.62-18.9,1.56S162.42,259.85,164.8,259.16Z"/><path class="cls-28" d="M165.21,259.33c2.21-.63,7.23-4.78,13.9-7.47,6.15-2.49,22.44-14.61,26.65-19.06,2.12-1.49,5.82,7.09,4.16,10.45-3.78,6.35-15,19.65-26.54,24.31-6.75,2.73-16.51,2.62-18.34,1.64S163,260,165.21,259.33Z"/><path class="cls-29" d="M165.62,259.5c2-.58,7-4.37,13.7-7.07,6.15-2.49,21.84-14.05,26.4-19.11,1.94-1.37,5.37,6.57,3.84,9.64-4.17,6.82-15.25,19.47-26.32,24-6.74,2.73-16.09,2.62-17.78,1.71S163.61,260.08,165.62,259.5Z"/><path class="cls-30" d="M166,259.67c1.85-.53,6.83-4,13.5-6.66,6.15-2.49,21.24-13.49,26.14-19.18,1.77-1.24,4.92,6,3.54,8.85-4.57,7.29-15.48,19.29-26.1,23.59-6.75,2.73-15.68,2.62-17.22,1.8S164.2,260.2,166,259.67Z"/><path class="cls-31" d="M166.44,259.84c1.67-.48,6.63-3.56,13.3-6.26,6.15-2.49,20.64-12.93,25.89-19.23,1.59-1.12,4.47,5.53,3.22,8-4.95,7.76-15.69,19.11-25.88,23.24-6.74,2.73-15.27,2.62-16.66,1.88S164.8,260.31,166.44,259.84Z"/><path class="cls-32" d="M166.86,260c1.49-.43,6.42-3.15,13.09-5.85,6.15-2.49,20-12.38,25.64-19.29,1.41-1,4,5,2.9,7.24-5.34,8.23-15.91,18.93-25.65,22.88-6.75,2.73-14.86,2.61-16.1,2S165.39,260.43,166.86,260Z"/><path class="cls-33" d="M167.27,260.18c1.31-.37,6.22-2.75,12.89-5.45,6.15-2.48,19.44-11.82,25.38-19.35,1.24-.87,3.57,4.49,2.6,6.45-5.74,8.69-16.13,18.74-25.44,22.51-6.74,2.73-14.44,2.62-15.54,2S166,260.55,167.27,260.18Z"/><path class="cls-34" d="M167.68,260.34c1.13-.31,6-2.33,12.69-5,6.15-2.49,18.84-11.27,25.13-19.41,1.06-.75,3.11,4,2.28,5.64-6.12,9.17-16.35,18.57-25.21,22.16-6.75,2.73-14,2.62-15,2.12S166.58,260.66,167.68,260.34Z"/><path class="cls-35" d="M168.09,260.51c.95-.26,5.82-1.93,12.49-4.62,6.15-2.49,18.24-10.72,24.87-19.47.89-.63,2.67,3.44,2,4.84-6.52,9.63-16.58,18.39-25,21.79-6.75,2.73-13.62,2.62-14.41,2.21S167.18,260.78,168.09,260.51Z"/><path class="cls-36" d="M168.51,260.68a111.89,111.89,0,0,0,12.28-4.22c6.15-2.49,17.64-10.16,24.62-19.53.71-.5,2.21,2.92,1.66,4-6.91,10.1-16.79,18.21-24.78,21.44-6.74,2.73-13.2,2.62-13.85,2.29S167.77,260.89,168.51,260.68Z"/><path class="cls-37" d="M168.92,260.85A76.65,76.65,0,0,0,181,257c6.15-2.49,17-9.61,24.37-19.59.53-.38,1.76,2.4,1.34,3.24-7.3,10.57-17,18-24.55,21.08-6.75,2.72-12.8,2.61-13.29,2.37S168.37,261,168.92,260.85Z"/><path class="cls-38" d="M169.33,261a55.85,55.85,0,0,0,11.88-3.41c6.15-2.49,16.44-9.05,24.11-19.65.36-.25,1.32,1.88,1,2.44-7.69,11-17.23,17.85-24.34,20.72-6.74,2.73-12.38,2.62-12.73,2.45S169,261.12,169.33,261Z"/><path class="cls-39" d="M169.74,261.19a41.35,41.35,0,0,0,11.68-3c6.15-2.49,15.84-8.49,23.86-19.71.17-.12.86,1.36.72,1.64-8.08,11.51-17.45,17.67-24.11,20.36s-12,2.61-12.17,2.53A3.4,3.4,0,0,1,169.74,261.19Z"/><path class="cls-40" d="M170.15,261.36a31.84,31.84,0,0,0,11.48-2.6c6.15-2.48,15.23-7.93,23.6-19.76l.42.83c-8.48,12-17.67,17.49-23.9,20a32.1,32.1,0,0,1-11.61,2.61Z"/></g></svg>