<svg xmlns="http://www.w3.org/2000/svg" viewBox="0 0 216.75 177.59"><defs><style>.cls-1,.cls-2{fill:#fff;}.cls-2{font-size:12px;font-family:BrandonGrotesque-Bold, Brandon Grotesque;font-weight:700;letter-spacing:0.39em;}.cls-3{letter-spacing:0.35em;}.cls-4{letter-spacing:0.42em;}.cls-5{letter-spacing:0.39em;}.cls-6{letter-spacing:0.39em;}.cls-7{letter-spacing:0.42em;}</style></defs><title>Asset 14</title><g id="Layer_2" data-name="Layer 2"><g id="Layer_1-2" data-name="Layer 1"><path class="cls-1" d="M17.87,3a4.73,4.73,0,0,1,0,9.45h-.48a4.73,4.73,0,0,1,0-9.45h.48m0-3h-.48a7.73,7.73,0,0,0,0,15.45h.48A7.73,7.73,0,0,0,17.87,0Z"/><path class="cls-1" d="M70.86,3a4.73,4.73,0,1,1,0,9.45H42A4.73,4.73,0,0,1,42,3H70.86m0-3H42a7.73,7.73,0,0,0,0,15.45H70.86A7.73,7.73,0,1,0,70.86,0Z"/><path class="cls-1" d="M17.87,40.93h-.48a7.73,7.73,0,0,1,0-15.45h.48a7.73,7.73,0,0,1,0,15.45Z"/><path class="cls-1" d="M106.57,40.93H42a7.73,7.73,0,0,1,0-15.45h64.56a7.73,7.73,0,1,1,0,15.45Z"/><path class="cls-1" d="M17.87,66.42h-.48a7.73,7.73,0,0,1,0-15.46h.48a7.73,7.73,0,0,1,0,15.46Z"/><path class="cls-1" d="M88.71,54a4.73,4.73,0,1,1,0,9.46H42A4.73,4.73,0,0,1,42,54h46.7m0-3H42a7.73,7.73,0,0,0,0,15.46h46.7a7.73,7.73,0,1,0,0-15.46Z"/><path class="cls-1" d="M17.87,91.9h-.48a7.73,7.73,0,0,1,0-15.45h.48a7.73,7.73,0,0,1,0,15.45Z"/><path class="cls-1" d="M160.14,79.45a4.73,4.73,0,1,1,0,9.45H85.28a4.73,4.73,0,1,1,0-9.45h74.86m0-3H85.28a7.73,7.73,0,1,0,0,15.45h74.86a7.73,7.73,0,1,0,0-15.45Z"/><path class="cls-1" d="M64,91.9H42a7.73,7.73,0,0,1,0-15.45H64A7.73,7.73,0,0,1,64,91.9Z"/><path class="cls-1" d="M17.87,104.93a4.73,4.73,0,0,1,0,9.45h-.48a4.73,4.73,0,0,1,0-9.45h.48m0-3h-.48a7.73,7.73,0,0,0,0,15.45h.48a7.73,7.73,0,0,0,0-15.45Z"/><path class="cls-1" d="M106.57,117.38H42a7.73,7.73,0,0,1,0-15.45h64.56a7.73,7.73,0,1,1,0,15.45Z"/><path class="cls-1" d="M17.87,142.86h-.48a7.73,7.73,0,0,1,0-15.45h.48a7.73,7.73,0,0,1,0,15.45Z"/><path class="cls-1" d="M106.57,142.86H42a7.73,7.73,0,0,1,0-15.45h64.56a7.73,7.73,0,1,1,0,15.45Z"/><path class="cls-1" d="M95.37,3a4.73,4.73,0,0,1,0,9.45h-.48a4.73,4.73,0,0,1,0-9.45h.48m0-3h-.48a7.73,7.73,0,0,0,0,15.45h.48A7.73,7.73,0,0,0,95.37,0Z"/><path class="cls-1" d="M109.75,54a4.73,4.73,0,1,1,0,9.46h-.47a4.73,4.73,0,0,1,0-9.46h.47m0-3h-.47a7.73,7.73,0,0,0,0,15.46h.47a7.73,7.73,0,1,0,0-15.46Z"/><path class="cls-1" d="M131,143.23h-.47a7.73,7.73,0,1,1,0-15.45H131a7.73,7.73,0,1,1,0,15.45Z"/><path class="cls-1" d="M131,117.38h-.47a7.73,7.73,0,1,1,0-15.45H131a7.73,7.73,0,1,1,0,15.45Z"/><path class="cls-1" d="M151.84,130.78a4.73,4.73,0,1,1,0,9.45h-.47a4.73,4.73,0,1,1,0-9.45h.47m0-3h-.47a7.73,7.73,0,1,0,0,15.45h.47a7.73,7.73,0,1,0,0-15.45Z"/><path class="cls-1" d="M172.73,130.78a4.73,4.73,0,0,1,0,9.45h-.48a4.73,4.73,0,0,1,0-9.45h.48m0-3h-.48a7.73,7.73,0,0,0,0,15.45h.48a7.73,7.73,0,0,0,0-15.45Z"/><path class="cls-1" d="M193.62,130.78a4.73,4.73,0,0,1,0,9.45h-.48a4.73,4.73,0,0,1,0-9.45h.48m0-3h-.48a7.73,7.73,0,0,0,0,15.45h.48a7.73,7.73,0,0,0,0-15.45Z"/><text class="cls-2" transform="translate(11.5 172.62)">- SA<tspan class="cls-3" x="40.26" y="0">A</tspan><tspan class="cls-4" x="52.45" y="0">T</tspan><tspan class="cls-5" x="63.49" y="0">VIK SHU</tspan><tspan class="cls-6" x="142.83" y="0">K</tspan><tspan class="cls-7" x="155.34" y="0">L</tspan><tspan class="cls-5" x="166.46" y="0">A -</tspan></text><polygon class="cls-1" points="0 154.59 27.09 154.47 54.19 154.42 108.38 154.34 162.57 154.42 189.66 154.47 216.75 154.59 189.66 154.71 162.57 154.76 108.38 154.84 54.19 154.76 27.09 154.71 0 154.59"/></g></g></svg>